<svg xmlns="http://www.w3.org/2000/svg" width="112.557mm" height="106.586mm" viewBox="0 0 319.06 302.134">
  <title>0-OUTLINE</title>
  <path d="M159.529,4c4.68,0,9.487.21,14.286.624l.171.014H315.06V151.065c0,78.515-64.909,143.034-147.77,146.884-2.639.122-5.25.183-7.761.183l-4,0H4V151.146C4,114.208,18.506,78.9,44.849,51.729,71.042,24.712,106.633,7.99,145.068,4.636l.047,0,.083,0,.084-.007C150.024,4.209,154.818,4,159.529,4M127.275,111.98a35.691,35.691,0,0,0-7.062,6.937,51.455,51.455,0,1,0,7.062-6.937M159.529,0c-4.811,0-9.756.216-14.594.638l-.13.006c-39.427,3.419-75.946,20.573-102.827,48.3C14.907,76.867,0,113.133,0,151.146V302.134H159.529v0c2.576,0,5.233-.062,7.945-.187,85-3.949,151.586-70.224,151.586-150.88V.638h-144.9C169.241.214,164.319,0,159.529,0Zm.1,199.407a47.438,47.438,0,0,1-36.291-77.988,31.8,31.8,0,0,1,6.394-6.278,47.437,47.437,0,1,1,29.9,84.266Z" fill="#fff"/>
</svg>
