<svg xmlns="http://www.w3.org/2000/svg" width="112.557mm" height="106.586mm" viewBox="0 0 319.06 302.134">
  <title>0</title>
  <path d="M174.158.638C169.241.214,164.319,0,159.529,0c-4.811,0-9.756.216-14.594.638l-.13.006c-39.427,3.419-75.946,20.573-102.827,48.3C14.907,76.867,0,113.133,0,151.146V302.134H159.529v0c2.576,0,5.233-.062,7.945-.187,85-3.949,151.586-70.224,151.586-150.88V.638ZM159.626,199.407a47.438,47.438,0,0,1-36.291-77.988,31.8,31.8,0,0,1,6.394-6.278,47.437,47.437,0,1,1,29.9,84.266Z" fill="#fff"/>
</svg>
