<svg xmlns="http://www.w3.org/2000/svg" width="112.522mm" height="106.474mm" viewBox="0 0 318.961 301.815">
  <title>1-OUTLINE</title>
  <path d="M213.313,4c56.049,0,101.648,45.42,101.648,101.25V286.775a11.078,11.078,0,0,1-11.092,11.04H168.786V135.01a48.77,48.77,0,0,0,33.068-23.986,22.71,22.71,0,0,0,1.062-2.012,48.442,48.442,0,1,0-91.827-21.553v.015H4.036C5.369,41.219,43.56,4,90.313,4h123m0-4h-123C40.515,0,0,40.362,0,89.974v1.5H115.241l-.085-1.581c-.045-.826-.067-1.645-.067-2.434a44.439,44.439,0,1,1,84.216,19.831,18.523,18.523,0,0,1-.923,1.747,44.7,44.7,0,0,1-32.315,22.381l-1.281.189V301.815H303.869a15.084,15.084,0,0,0,15.092-15.04V105.25C318.961,47.215,271.567,0,213.313,0Z" fill="#231f20"/>
</svg>
