<svg xmlns="http://www.w3.org/2000/svg" width="112.489mm" height="106.185mm" viewBox="0 0 318.867 300.997">
  <title>2-OUTLINE</title>
  <path d="M303.779,4a11.058,11.058,0,0,1,11.088,11V87.8a110.867,110.867,0,0,1-32.554,78.7,112.827,112.827,0,0,1-70.04,32.774h-7a48.674,48.674,0,0,0-45.84-32.756A48.436,48.436,0,0,0,111,215.65a48.807,48.807,0,0,0,47.5,47.728q.476.009.949.009a48.443,48.443,0,0,0,48.306-45.121H314.867v67.728a11.058,11.058,0,0,1-11.085,11L4.028,296.759a109.853,109.853,0,0,1,41.3-83.627l41.514-33.458,59.525-46.922a48.469,48.469,0,0,0,50.692-16.15l.07-.072.157-.159.137-.177A50.758,50.758,0,0,0,207.872,86.1,48.439,48.439,0,1,0,128.053,123l-20.841,16.429a76.213,76.213,0,0,1-34.535,8.4,74.092,74.092,0,0,1-26.645-4.954C20.106,132.917,4,109.57,4,81.938V15A11.058,11.058,0,0,1,15.087,4H303.779m0-4H15.087A15.062,15.062,0,0,0,0,15V81.938c0,29.328,17.089,54.106,44.6,64.665a78.21,78.21,0,0,0,28.078,5.22,79.848,79.848,0,0,0,36.708-9.017l24.982-19.694.155-.172-1.337-.981A44.438,44.438,0,1,1,203.872,86.1a46.72,46.72,0,0,1-9.6,27.63l-.2.208a44.466,44.466,0,0,1-48.536,14.378L84.367,176.533,42.82,210.018A113.853,113.853,0,0,0,0,299.257v1.5L303.779,301a15.062,15.062,0,0,0,15.088-15V214.266H203.887l-.025,1.444a44.437,44.437,0,0,1-44.41,43.677q-.436,0-.873-.008A44.777,44.777,0,0,1,115,215.593a44.438,44.438,0,0,1,44.435-45.083,44.634,44.634,0,0,1,42.7,32.1l.188.652h10.123a116.144,116.144,0,0,0,72.7-33.952A114.837,114.837,0,0,0,318.867,87.8V15A15.062,15.062,0,0,0,303.779,0Z" fill="#fff"/>
</svg>
