<svg xmlns="http://www.w3.org/2000/svg" width="112.489mm" height="106.185mm" viewBox="0 0 318.867 300.997">
  <title>2</title>
  <path d="M203.887,214.266l-.025,1.445a44.437,44.437,0,0,1-45.283,43.668A44.777,44.777,0,0,1,115,215.594a44.438,44.438,0,0,1,44.435-45.084,44.634,44.634,0,0,1,42.7,32.1l.188.652h10.123a116.138,116.138,0,0,0,72.7-33.952A114.836,114.836,0,0,0,318.867,87.8V15A15.062,15.062,0,0,0,303.779,0H15.087A15.062,15.062,0,0,0,0,15V81.938c0,29.328,17.089,54.106,44.6,64.665a78.838,78.838,0,0,0,64.786-3.8l24.982-19.693.155-.173-1.337-.981A44.438,44.438,0,1,1,203.872,86.1a46.725,46.725,0,0,1-9.6,27.631l-.2.207a44.466,44.466,0,0,1-48.536,14.378L84.367,176.533,42.82,210.018A113.853,113.853,0,0,0,0,299.257v1.5L303.779,301a15.062,15.062,0,0,0,15.088-15V214.266Z" fill="#fff"/>
</svg>
