<svg xmlns="http://www.w3.org/2000/svg" width="112.489mm" height="106.349mm" viewBox="0 0 318.867 301.462">
  <title>3-OUTLINE</title>
  <path d="M303.78,4a11.068,11.068,0,0,1,11.087,11.024V286.439a11.067,11.067,0,0,1-11.087,11.023H15.088A11.068,11.068,0,0,1,4,286.439a61.464,61.464,0,0,1,19.479-45.394c12.412-11.615,29.185-18.011,47.231-18.011h41.031a48.434,48.434,0,1,0,.479-19.369H4V97.964H112.372a48.439,48.439,0,1,0-.721-19.491H59.085A66.669,66.669,0,0,1,19.723,57,63.435,63.435,0,0,1,4,15.024,11.068,11.068,0,0,1,15.088,4H303.78m0-4H15.088A15.074,15.074,0,0,0,0,15.024C0,49.429,25,77.13,58.766,82.473h56.406l.04-.405a44.425,44.425,0,1,1,.639,13.1l-.241-1.207H0v113.7H115.523l.071-.429a44.437,44.437,0,1,1-.221,13.1l-.171-1.305H70.71c-19.064,0-36.809,6.779-49.964,19.091A65.422,65.422,0,0,0,0,286.439a15.073,15.073,0,0,0,15.088,15.023H303.78a15.071,15.071,0,0,0,15.087-15.023V15.024A15.072,15.072,0,0,0,303.78,0Z" fill="#231f20"/>
</svg>
