<svg xmlns="http://www.w3.org/2000/svg" width="112.489mm" height="106.349mm" viewBox="0 0 318.867 301.462">
  <title>3</title>
  <path d="M303.78,0H15.088A15.074,15.074,0,0,0,0,15.024C0,49.429,25,77.13,58.766,82.473h56.406l.04-.405a44.425,44.425,0,1,1,.639,13.1l-.241-1.207H0v113.7H115.523l.071-.429a44.437,44.437,0,1,1-.221,13.1l-.171-1.306H70.71c-19.064,0-36.809,6.78-49.964,19.091A65.422,65.422,0,0,0,0,286.439a15.073,15.073,0,0,0,15.088,15.023H303.78a15.071,15.071,0,0,0,15.087-15.023V15.024A15.072,15.072,0,0,0,303.78,0Z" fill="#231f20"/>
</svg>
