<svg xmlns="http://www.w3.org/2000/svg" width="112.797mm" height="106.174mm" viewBox="0 0 319.74 300.966">
  <title>4-OUTLINE</title>
  <path d="M304.6,4A11.017,11.017,0,0,1,315.74,14.862v282.1H159.434c-42.468,0-82.027-15.841-111.39-44.606C20.053,224.939,4,187.813,4,150.5V14.862A11.017,11.017,0,0,1,15.142,4H150.37v98.994a48.439,48.439,0,1,0,19,0V4H304.6m0-4H165.37V106.384l1.1.164a44.439,44.439,0,1,1-13.2,0l1.1-.164V0H15.142A15.02,15.02,0,0,0,0,14.862V150.5c0,38.381,16.491,76.55,45.245,104.718,30.115,29.5,70.668,45.749,114.189,45.749H319.74V14.862A15.02,15.02,0,0,0,304.6,0Z" fill="#231f20"/>
</svg>
