<svg xmlns="http://www.w3.org/2000/svg" width="112.797mm" height="106.149mm" viewBox="0 0 319.741 300.896">
  <title>5-OUTLINE</title>
  <path d="M304.6,4a11.017,11.017,0,0,1,11.142,10.862V54.814l-.511-.1V77.043H207.344a48.42,48.42,0,1,0-.01,19.093h107.9v50.408c0,82.905-67.886,150.352-151.33,150.352H4.538c.548-24.528,9.237-42.385,26.515-54.536,17.717-12.458,45.1-18.9,81.411-19.146a48.416,48.416,0,1,0-.13-19.072H4.5l-.253-73.1L4.075,82.78,4.021,67.092l-.015-4.375a14.069,14.069,0,0,0-.071-1.529H4V14.862A11.017,11.017,0,0,1,15.142,4H70.035l-.05.07H256.031L256.019,4H304.6m0-4H251.3c0,.023,0,.046.009.07H77.727L77.776,0H15.142A15.02,15.02,0,0,0,0,14.862V61.188H0S.475,198.508.508,208.142H115.755l.1-.75a44.412,44.412,0,1,1,.172,13.076l-.2-1.261h-1.278C37.812,219.235.51,245.466.51,299.4v1.5H163.9c85.649,0,155.33-69.242,155.33-154.352V92.136H203.941l-.1.711a44.4,44.4,0,1,1-.074-13.075l.2,1.271H319.23V59.613c.169.034.342.062.511.1V14.862A15.02,15.02,0,0,0,304.6,0Z" fill="#231f20"/>
</svg>
