<svg xmlns="http://www.w3.org/2000/svg" width="112.797mm" height="106.149mm" viewBox="0 0 319.74 300.896">
  <title>5</title>
  <path d="M203.941,92.136l-.1.711a44.4,44.4,0,1,1-.074-13.075l.2,1.272H319.23V59.613c.169.034.342.062.51.1V14.862A15.02,15.02,0,0,0,304.6,0H251.3c0,.023,0,.047.009.07H77.727L77.776,0H15.142A15.02,15.02,0,0,0,0,14.862V61.188c0-.475.475,137.3.508,146.954H115.755l.1-.75a44.412,44.412,0,1,1,.172,13.076l-.2-1.261h-1.278C37.812,219.236.51,245.466.51,299.4v1.5H163.9c85.649,0,155.33-69.242,155.33-154.351V92.136Z" fill="#231f20"/>
</svg>
