<svg xmlns="http://www.w3.org/2000/svg" width="112.5mm" height="106.185mm" viewBox="0 0 318.898 300.997">
  <title>6-OUTLINE</title>
  <path d="M299.747,4,199.078,100.876l-11.155,10.449a48.395,48.395,0,1,0,13.635,15.25c13.852-13.23,28.376-21.815,43.194-25.529a65.688,65.688,0,0,1,15.939-2.015,56.75,56.75,0,0,1,22.076,4.356c19.506,8.181,32.118,26.674,32.13,47.121v.338c-.133,56.179-28.871,90.755-52.956,109.868C233.314,283.434,194.994,297,159.435,297c-58.483,0-95-25.835-115.333-47.508C18.617,222.327,4,186.246,4,150.5,4,113.241,19.486,76.3,46.488,49.155,75.453,20.036,115.564,4,159.435,4H299.747m4.136-4H159.435C114.492,0,73.373,16.455,43.652,46.334,15.911,74.225,0,112.191,0,150.5c0,36.752,15.011,73.831,41.185,101.727C62.06,274.475,99.52,301,159.435,301c36.432,0,75.682-13.888,104.994-37.149,24.773-19.66,54.332-55.215,54.469-112.993V150.5c-.013-22.054-13.588-41.994-34.583-50.8a60.848,60.848,0,0,0-23.623-4.667,69.533,69.533,0,0,0-16.911,2.136c-16.021,4.014-31.644,13.407-46.434,27.918l-.861.845.64,1.022a44.467,44.467,0,1,1-9.793-11.042l.831.671,13.67-12.8L309.058.591,306,.163A15.1,15.1,0,0,0,303.883,0Z" fill="#fff"/>
</svg>
