<svg xmlns="http://www.w3.org/2000/svg" width="112.5mm" height="106.185mm" viewBox="0 0 318.898 300.997">
  <title>6</title>
  <path d="M318.9,150.5c-.013-22.054-13.588-41.994-34.583-50.8-12.388-5.2-26.407-6.072-40.534-2.531-16.021,4.014-31.644,13.407-46.434,27.918l-.861.845.64,1.022a44.467,44.467,0,1,1-9.793-11.042l.831.671,13.67-12.8L309.058.592,306,.163A15.1,15.1,0,0,0,303.883,0H159.435C114.492,0,73.373,16.455,43.652,46.334,15.911,74.225,0,112.191,0,150.5c0,36.752,15.011,73.831,41.185,101.727C62.06,274.475,99.52,301,159.435,301c36.432,0,75.682-13.888,104.994-37.149,24.773-19.66,54.332-55.215,54.469-112.993Z" fill="#fff"/>
</svg>
