<svg xmlns="http://www.w3.org/2000/svg" width="112.411mm" height="105.663mm" viewBox="0 0 318.646 299.516">
  <title>7</title>
  <g>
    <path d="M17.766,142.51l98.91,1.4.213-1.256A42.756,42.756,0,0,1,159.3,107.164a44.1,44.1,0,0,1,27.1,9.5l.582.455,8.584-7.907.074.093L208.881,96.99l-.014-.032,5.234-4.821L313.194,0H12.164A12.1,12.1,0,0,0,0,12.037V124.676A18,18,0,0,0,17.766,142.51Z" fill="#231f20"/>
    <path d="M293.767,33.084l-99.191,92.228.361.525a41.927,41.927,0,0,1,7.27,27.612c-1.707,20.065-18.251,36.7-38.483,38.686a43.288,43.288,0,0,1-31.054-8.945l-.186-.146L32.276,276.219,7.548,299.485H79.62c.439.018.88.031,1.324.031h62.43q4.172,0,8.3-.195,3.68.159,7.4.164c88.131,0,159.575-67.065,159.575-149.792V10.048l-2.8,2.7Z" fill="#231f20"/>
  </g>
</svg>
