<svg xmlns="http://www.w3.org/2000/svg" width="113.046mm" height="105.863mm" viewBox="0 0 320.446 300.084">
  <title>8-OUTLINE</title>
  <g>
    <path d="M300.267,4a16.057,16.057,0,0,1,16.179,15.9v52.1a67.985,67.985,0,0,1-18.612,46.75,70.019,70.019,0,0,1-45.447,21.8H206.512c-4.493-21.347-23.972-37.162-46.289-37.162s-41.8,15.814-46.29,37.162H70.122A72.165,72.165,0,0,1,23.213,118.1,70.062,70.062,0,0,1,4,69.884V20.018A16.181,16.181,0,0,1,20.3,4H300.267m0-4H20.3A20.162,20.162,0,0,0,0,20.018V69.884c0,39.374,30.817,71.63,69.965,74.658h46.8a1.472,1.472,0,0,0,.691-1.014c3.2-20.607,21.59-36.148,42.771-36.148s39.569,15.541,42.77,36.148a1.47,1.47,0,0,0,.692,1.014h48.861c38-2.988,67.9-34.316,67.9-72.549V19.9A20.038,20.038,0,0,0,300.267,0Z" fill="#fff"/>
    <path d="M252.152,159.542a70.291,70.291,0,0,1,45.614,21.886,68.243,68.243,0,0,1,18.68,46.925V279.92a16.329,16.329,0,0,1-16.453,16.164H19.98A15.859,15.859,0,0,1,4,280.386V231.167a71.017,71.017,0,0,1,19.481-48.88,73.146,73.146,0,0,1,47.565-22.745h42.888c4.493,21.349,23.973,37.162,46.289,37.162s41.8-15.813,46.29-37.162h45.639m.16-4H203.683a1.475,1.475,0,0,0-.689,1.013c-3.2,20.609-21.588,36.149-42.771,36.149s-39.569-15.54-42.771-36.149a1.471,1.471,0,0,0-.688-1.013H70.891C31.227,158.6,0,191.277,0,231.167v49.219a19.841,19.841,0,0,0,19.98,19.7H299.993a20.309,20.309,0,0,0,20.453-20.164V228.353c0-38.368-30-69.807-68.134-72.811Z" fill="#fff"/>
  </g>
</svg>
