<svg xmlns="http://www.w3.org/2000/svg" width="113.046mm" height="105.863mm" viewBox="0 0 320.446 300.084">
  <title>8</title>
  <g>
    <path d="M300.267,0H20.3A20.162,20.162,0,0,0,0,20.018V69.884c0,39.374,30.817,71.63,69.965,74.658h46.8a1.472,1.472,0,0,0,.691-1.014c3.2-20.607,21.59-36.148,42.771-36.148s39.569,15.541,42.77,36.148a1.47,1.47,0,0,0,.692,1.014h48.861c38-2.988,67.9-34.316,67.9-72.55V19.9A20.038,20.038,0,0,0,300.267,0Z" fill="#231f20"/>
    <path d="M252.312,155.542H203.683a1.475,1.475,0,0,0-.689,1.013c-3.2,20.608-21.588,36.149-42.771,36.149s-39.569-15.541-42.771-36.149a1.471,1.471,0,0,0-.688-1.013H70.891C31.227,158.6,0,191.277,0,231.167v49.218a19.841,19.841,0,0,0,19.98,19.7H299.993a20.31,20.31,0,0,0,20.453-20.164V228.353C320.446,189.985,290.444,158.546,252.312,155.542Z" fill="#231f20"/>
  </g>
</svg>
