<svg xmlns="http://www.w3.org/2000/svg" width="112.5mm" height="106.185mm" viewBox="0 0 318.897 300.997">
  <title>9-OUTLINE</title>
  <path d="M159.464,4c58.483,0,95,25.835,115.333,47.507,25.484,27.163,40.1,63.244,40.1,98.992,0,37.258-15.486,74.2-42.488,101.343C243.445,280.96,203.333,297,159.464,297H19.15L130.805,189.548a48.395,48.395,0,1,0-13.56-15.294l-4.6,4.443c-12.428,10.816-25.379,17.966-38.5,21.254a65.741,65.741,0,0,1-15.939,2.014A56.749,56.749,0,0,1,36.13,197.61C16.625,189.428,4.013,170.936,4,150.5v-.385C4.133,93.967,32.871,59.4,56.955,40.282,85.583,17.563,123.9,4,159.464,4m0-4C123.03,0,83.78,13.887,54.469,37.149,29.7,56.809.137,92.364,0,150.1v.4c.014,22.053,13.589,41.993,34.583,50.8a60.847,60.847,0,0,0,23.623,4.666,69.584,69.584,0,0,0,16.911-2.134c13.8-3.458,27.3-10.915,40.228-22.185l6.973-6.729-.546-.872a44.473,44.473,0,1,1,9.793,11.041l-1.029-.831L9.84,300.4l3.054.428a14.954,14.954,0,0,0,2.121.164H159.464c44.942,0,86.06-16.455,115.781-46.334C302.986,226.772,318.9,188.806,318.9,150.5c0-36.753-15.01-73.832-41.183-101.728C256.839,26.521,219.379,0,159.464,0Z" fill="#231f20"/>
</svg>
