<svg xmlns="http://www.w3.org/2000/svg" width="112.5mm" height="106.185mm" viewBox="0 0 318.897 300.997">
  <title>9</title>
  <path d="M277.714,48.771C256.839,26.522,219.379,0,159.464,0,123.03,0,83.78,13.887,54.469,37.149,29.7,56.809.137,92.364,0,150.1v.4c.014,22.053,13.589,41.993,34.583,50.8,12.389,5.2,26.405,6.071,40.534,2.532,13.8-3.458,27.3-10.915,40.228-22.184l6.973-6.73-.546-.872a44.467,44.467,0,1,1,9.793,11.042l-1.029-.832L9.84,300.406l3.054.428a15.092,15.092,0,0,0,2.121.163H159.464c44.942,0,86.06-16.455,115.781-46.334C302.986,226.772,318.9,188.806,318.9,150.5,318.9,113.746,303.887,76.667,277.714,48.771Z" fill="#fff"/>
</svg>
