<svg xmlns="http://www.w3.org/2000/svg" width="111.534mm" height="105.21mm" viewBox="0 0 316.159 298.232">
  <title>A-OUTLINE</title>
  <g>
    <path d="M299.551,4c5.19,0,9.823,2.834,11.681,7.1.518,111.044,1.026,239.824.912,270.319L198.647,174.7a48.023,48.023,0,1,0-81.333-.077L4.022,280.523c.025-30.653.108-154.7.179-260.8L4.207,11C6.041,6.8,10.612,4,15.733,4H299.551m0-4H15.733C8.807,0,2.607,4.008.307,9.973l-.1.26v.279c0,2.757-.183,275.7-.192,277.093L0,289.758l122.55-114.55a43.6,43.6,0,0,1-8.568-26.075,44.017,44.017,0,1,1,79.765,25.685l-.116.189c-.051.1-.114.2-.178.3l122.23,114.925.369-1.849c.44-2.207-.608-231.792-.823-277.793v-.276l-.1-.257C312.8,4.043,306.544,0,299.551,0Z" fill="#fff"/>
    <path d="M130.383,188.418A47.48,47.48,0,0,0,158,197.15a48.129,48.129,0,0,0,27.544-8.688l112.493,105.77H19.29a13.888,13.888,0,0,1-1.962-.138L130.383,188.418m55.441-5.182A44.086,44.086,0,0,1,158,193.15a43.562,43.562,0,0,1-27.217-9.424l-.241-.19-.3-.08a.885.885,0,0,1-.262-.139L9.891,295.57l1.067.581a17.485,17.485,0,0,0,8.332,2.081H299.955a17.654,17.654,0,0,0,6.229-1.129l.532-.2L185.824,183.236Z" fill="#fff"/>
  </g>
</svg>
