<svg xmlns="http://www.w3.org/2000/svg" width="111.534mm" height="105.21mm" viewBox="0 0 316.159 298.232">
  <title>A</title>
  <g>
    <path d="M122.55,175.208a43.6,43.6,0,0,1-8.568-26.075,44.017,44.017,0,1,1,79.765,25.685l-.116.189c-.051.1-.114.2-.178.3l122.23,114.925.369-1.85c.44-2.206-.608-231.791-.823-277.792v-.276l-.1-.257C312.8,4.043,306.544,0,299.551,0H15.733C8.807,0,2.607,4.008.307,9.973l-.1.26v.279c0,2.757-.183,275.7-.192,277.093L0,289.758Z" fill="#231f20"/>
    <path d="M185.824,183.236A44.086,44.086,0,0,1,158,193.15a43.562,43.562,0,0,1-27.217-9.424l-.241-.19-.3-.08a.885.885,0,0,1-.262-.139L9.891,295.57l1.067.581a17.485,17.485,0,0,0,8.332,2.081H299.955a17.654,17.654,0,0,0,6.229-1.129l.532-.2Z" fill="#231f20"/>
  </g>
</svg>
