<svg xmlns="http://www.w3.org/2000/svg" width="111.466mm" height="105.22mm" viewBox="0 0 315.967 298.261">
  <title>B-OUTLINE</title>
  <path d="M301,4a10.933,10.933,0,0,1,10.963,10.879v268.5A10.933,10.933,0,0,1,301,294.261H14.963A10.933,10.933,0,0,1,4,283.382V220.607H110.755a48.017,48.017,0,1,0,.321-19H4V97.09H111.166a48.026,48.026,0,1,0-.482-19H4V14.879A10.933,10.933,0,0,1,14.963,4H301m0-4H14.963A14.938,14.938,0,0,0,0,14.879V82.09H114.165l.121-1.007a44,44,0,1,1,.346,12.959l-.167-.952H0V205.607H114.4l.186-1.1a44.017,44.017,0,1,1-.273,12.959l-.108-.858H0v66.775a14.937,14.937,0,0,0,14.963,14.879H301a14.937,14.937,0,0,0,14.963-14.879V14.879A14.938,14.938,0,0,0,301,0Z" fill="#fff"/>
</svg>
