<svg xmlns="http://www.w3.org/2000/svg" width="111.492mm" height="105.367mm" viewBox="0 0 316.04 298.678">
  <title>D-OUTLINE</title>
  <path d="M301.077,4A10.943,10.943,0,0,1,312.04,14.9V283.78a10.943,10.943,0,0,1-10.963,10.9H165.359l.016-.209H13.6A9.567,9.567,0,0,1,4,284.956V160.121H109.25a49.975,49.975,0,1,0,0-21.532H4V13.753A9.567,9.567,0,0,1,13.6,4.24H185.125l4.225-.035L189.339,4H301.077m0-4H185.115c0,.08.006.16.01.24H13.6A13.557,13.557,0,0,0,0,13.753V142.589H112.579a45.974,45.974,0,1,1,0,13.532H0V284.956a13.557,13.557,0,0,0,13.6,13.513H161.056c-.005.07-.012.139-.016.209H301.077a14.947,14.947,0,0,0,14.963-14.9V14.9A14.947,14.947,0,0,0,301.077,0Z" fill="#231f20"/>
</svg>
