<svg xmlns="http://www.w3.org/2000/svg" width="111.466mm" height="105.367mm" viewBox="0 0 315.967 298.678">
  <title>E-OUTLINE</title>
  <path d="M301,4a10.943,10.943,0,0,1,10.963,10.9V75.51H205a47.549,47.549,0,0,0-41.373-37.433L162.923,38l-.035,0-.036,0c-.261-.026-.528-.049-.789-.07-.562-.047-1.124-.087-1.732-.117l-.3-.011c-.687-.029-1.384-.044-2.073-.044-1.229,0-2.46.046-3.661.138a47.671,47.671,0,0,0-26.636,10.651c-.407.332-.811.671-1.206,1.016a48.016,48.016,0,0,0,31.534,84.226c.679,0,1.383-.016,2.161-.05a48.179,48.179,0,0,0,44.918-38.486h106.9V204.086H205.079a48.01,48.01,0,1,0-.062,19.1h106.95v60.6A10.943,10.943,0,0,1,301,294.678H14.963A10.943,10.943,0,0,1,4,283.78V14.9A10.943,10.943,0,0,1,14.963,4H301m0-4H14.963A14.947,14.947,0,0,0,0,14.9V283.78a14.947,14.947,0,0,0,14.963,14.9H301a14.947,14.947,0,0,0,14.963-14.9v-64.6H201.65l-.2,1.264a44.024,44.024,0,1,1,.142-12.977l.084.616H315.967V91.242H201.681l-.2,1.272a44.117,44.117,0,0,1-41.525,37.218c-.655.029-1.314.046-1.976.046a44.016,44.016,0,0,1-28.906-77.211q.544-.476,1.107-.932a43.693,43.693,0,0,1,24.41-9.762c1.112-.084,2.237-.126,3.358-.126q.956,0,1.905.04l.321.012c.518.026,1.033.062,1.549.106.249.02.5.042.74.065l.709.081A43.506,43.506,0,0,1,201.625,79.51H315.967V14.9A14.947,14.947,0,0,0,301,0Zm14.963,79.51v0Z" fill="#fff"/>
</svg>
