<svg xmlns="http://www.w3.org/2000/svg" width="111.466mm" height="105.367mm" viewBox="0 0 315.967 298.678">
  <title>E</title>
  <path d="M315.967,80.827V14.9A14.947,14.947,0,0,0,301,0H14.963A14.947,14.947,0,0,0,0,14.9V283.78a14.947,14.947,0,0,0,14.963,14.9H301a14.947,14.947,0,0,0,14.963-14.9v-64.6H201.65l-.2,1.264a44.023,44.023,0,1,1,.142-12.977l.084.616H315.967v.681h0V91.242H201.681l-.2,1.272a44.117,44.117,0,0,1-41.525,37.218c-.655.029-1.314.046-1.976.046a44.016,44.016,0,0,1-28.906-77.211q.544-.476,1.107-.932a43.693,43.693,0,0,1,24.41-9.762,45.1,45.1,0,0,1,5.263-.086l.321.013c.518.025,1.033.062,1.549.105.249.021.5.042.74.065l.709.081A43.506,43.506,0,0,1,201.625,79.51H315.967v1.317Z" fill="#fff"/>
</svg>
