<svg xmlns="http://www.w3.org/2000/svg" width="110.942mm" height="105.378mm" viewBox="0 0 314.48 298.708">
  <title>F-OUTLINE</title>
  <path d="M299.582,4a10.911,10.911,0,0,1,10.9,10.9V75.526H203.389a46.45,46.45,0,1,0,.507,19.293H310.48v68.187a11.084,11.084,0,0,1-11.071,11.072H169.836a15.917,15.917,0,0,0-15.9,15.9v93.746a11,11,0,0,1-10.985,10.984H14.9A10.911,10.911,0,0,1,4,283.81V14.9A10.911,10.911,0,0,1,14.9,4H299.582m0-4H14.9A14.916,14.916,0,0,0,0,14.9V283.81a14.915,14.915,0,0,0,14.9,14.9H142.953a15,15,0,0,0,14.985-14.984V189.978a11.912,11.912,0,0,1,11.9-11.9H299.409a15.089,15.089,0,0,0,15.071-15.072V90.819H200.453l-.176,1.3a42.464,42.464,0,1,1-.228-12.963l.063.371H314.48V14.9A14.915,14.915,0,0,0,299.582,0Z" fill="#fff"/>
</svg>
