<svg xmlns="http://www.w3.org/2000/svg" width="111.418mm" height="105.322mm" viewBox="0 0 315.832 298.55">
  <title>G-OUTLINE</title>
  <path d="M158.329,4c41.04,0,79.615,15.14,108.617,42.625,28.945,27.432,44.886,63.887,44.886,102.608v53.573H204.741a47.995,47.995,0,1,0,.414,19.127H311.831v61.725a10.936,10.936,0,0,1-10.956,10.891H14.957A10.936,10.936,0,0,1,4,283.659V14.893A10.937,10.937,0,0,1,14.957,4H158.329m-.007-4H14.957A14.942,14.942,0,0,0,0,14.893V283.659A14.941,14.941,0,0,0,14.957,298.55H300.875a14.941,14.941,0,0,0,14.956-14.891V217.934H201.69l-.118.971a44,44,0,1,1-.353-13.332l.224,1.234H315.831V149.348c0-.025,0-.049,0-.074C315.832,66.834,245.31,0,158.322,0Z" fill="#231f20"/>
</svg>
