<svg xmlns="http://www.w3.org/2000/svg" width="111.466mm" height="105.378mm" viewBox="0 0 315.967 298.709">
  <title>H-OUTLINE</title>
  <path d="M301,4a10.943,10.943,0,0,1,10.963,10.9V283.81A10.944,10.944,0,0,1,301,294.709H167.483V260.058a48.018,48.018,0,1,0-19,0v34.652H14.963A10.944,10.944,0,0,1,4,283.81V14.9A10.943,10.943,0,0,1,14.963,4h133.52V38.063a48.015,48.015,0,1,0,19,0V4H301m0-4H163.483V41.449l1.02.152a44.017,44.017,0,1,1-13.039,0l1.019-.152V0H14.963A14.948,14.948,0,0,0,0,14.9V283.81a14.948,14.948,0,0,0,14.963,14.9h137.52V256.67l-1.019-.151a44.018,44.018,0,1,1,13.039,0l-1.02.151v42.039H301a14.948,14.948,0,0,0,14.963-14.9V14.9A14.948,14.948,0,0,0,301,0Z" fill="#fff"/>
</svg>
