<svg xmlns="http://www.w3.org/2000/svg" width="56.35mm" height="105.22mm" viewBox="0 0 159.731 298.261">
  <title>I-OUTLINE</title>
  <path d="M145.955,4a9.787,9.787,0,0,1,9.776,9.776v270.71a9.787,9.787,0,0,1-9.776,9.775H13.776A9.786,9.786,0,0,1,4,284.486V13.776A9.786,9.786,0,0,1,13.776,4H70.365V42.468a46.179,46.179,0,1,0,19,0V4h56.59m0-4H85.365V45.832l.971.149a42.179,42.179,0,1,1-12.94,0l.969-.149V0H13.776A13.792,13.792,0,0,0,0,13.776v270.71a13.791,13.791,0,0,0,13.776,13.775H145.955a13.791,13.791,0,0,0,13.776-13.775V13.776A13.792,13.792,0,0,0,145.955,0Z" fill="#fff"/>
</svg>
