<svg xmlns="http://www.w3.org/2000/svg" width="111.457mm" height="105.374mm" viewBox="0 0 315.942 298.697">
  <title>J-OUTLINE</title>
  <path d="M169.1,4l141.153.492a1.679,1.679,0,0,1,1.688,1.666v143.4c0,2.594-.077,5.266-.228,7.919l-.087,1.4c-2.469,36.859-19.575,71.107-48.167,96.436-28.671,25.4-66.133,39.385-105.486,39.385s-76.8-13.98-105.469-39.365C23.915,230.018,6.8,195.784,4.32,158.938l-.251-3.731H4V138.814a1.685,1.685,0,0,1,1.707-1.665l141.3-.491a1.712,1.712,0,0,1,1.463.826v27.841l-.192.091a48.02,48.02,0,1,0,19.192-.038V118.515h-.054V5.666A1.68,1.68,0,0,1,169.1,4m.008-4a5.685,5.685,0,0,0-5.692,5.666V122.515h.054v45.738l.035.51,1.389.217a44.019,44.019,0,1,1-50.94,43.473,44.309,44.309,0,0,1,35.6-43.212l2.919-1.393V136.722a5.7,5.7,0,0,0-5.463-4.064l-141.314.491A5.686,5.686,0,0,0,0,138.814v20.393H.329C5.608,237.541,74.565,298.7,157.974,298.7c83.426,0,152.4-61.192,157.644-139.553l.088-1.415c.156-2.747.236-5.478.236-8.169V6.158A5.685,5.685,0,0,0,310.254.492L169.109,0Z" fill="#231f20"/>
</svg>
