<svg xmlns="http://www.w3.org/2000/svg" width="111.457mm" height="105.374mm" viewBox="0 0 315.942 298.697">
  <title>J</title>
  <path d="M310.254.492,169.109,0a5.685,5.685,0,0,0-5.692,5.666V122.515h.054v45.738l.035.51,1.389.217a44.019,44.019,0,1,1-50.94,43.473,44.311,44.311,0,0,1,35.6-43.213l2.919-1.392V136.722a5.7,5.7,0,0,0-5.463-4.065l-141.314.492A5.686,5.686,0,0,0,0,138.814v20.392H.329C5.608,237.541,74.565,298.7,157.974,298.7c83.426,0,152.4-61.192,157.644-139.553l.088-1.415c.156-2.747.236-5.478.236-8.17V6.157A5.684,5.684,0,0,0,310.254.492Z" fill="#231f20"/>
</svg>
