<svg xmlns="http://www.w3.org/2000/svg" width="108.891mm" height="105.21mm" viewBox="0 0 308.666 298.232">
  <title>K-OUTLINE</title>
  <g>
    <path d="M298.592,4,184.129,110.031a48.445,48.445,0,0,0-16.421-6.386V4H298.592M304.4,0h-140.7V107.06l1.263.182a44.323,44.323,0,0,1,19.56,7.868L308.666.121,305,.02l-.186-.008C304.68.006,304.542,0,304.4,0Z" fill="#231f20"/>
    <path d="M148.708,4v99.754c-21.955,4.5-37.649,23.217-37.649,45.361s15.694,40.863,37.649,45.362v99.753H15.227A11.068,11.068,0,0,1,4,283.355V14.879A11.068,11.068,0,0,1,15.227,4H148.708m4-4H15.227A15.072,15.072,0,0,0,0,14.879V283.355a15.072,15.072,0,0,0,15.227,14.877H152.708V191.11l-1.037-.161c-21.215-3.3-36.612-20.891-36.612-41.832s15.4-38.534,36.612-41.831l1.037-.161V0Z" fill="#231f20"/>
    <path d="M185.608,187.248,298.674,294.232H167.708v-99.6a48.174,48.174,0,0,0,17.9-7.383m.346-5.18-1.011.75a44.112,44.112,0,0,1-19.971,8.216l-1.264.181V296.686a1.781,1.781,0,0,0,1.762,1.546H299.382a15.467,15.467,0,0,0,5.219-.9l2.3-.824L185.954,182.068Z" fill="#231f20"/>
  </g>
</svg>
