<svg xmlns="http://www.w3.org/2000/svg" width="108.891mm" height="105.21mm" viewBox="0 0 308.666 298.232">
  <title>K</title>
  <g>
    <path d="M163.708,107.06l1.263.182a44.323,44.323,0,0,1,19.56,7.868L308.666.121,305,.02l-.186-.008C304.68.006,304.542,0,304.4,0h-140.7Z" fill="#231f20"/>
    <path d="M152.708,191.11l-1.037-.161c-21.215-3.3-36.612-20.891-36.612-41.832s15.4-38.533,36.612-41.831l1.037-.161V0H15.227A15.073,15.073,0,0,0,0,14.88V283.355a15.072,15.072,0,0,0,15.227,14.877H152.708Z" fill="#231f20"/>
    <path d="M184.943,182.819a44.121,44.121,0,0,1-19.971,8.215l-1.264.182v105.47a1.781,1.781,0,0,0,1.762,1.546H299.382a15.467,15.467,0,0,0,5.219-.9l2.3-.823L185.954,182.069Z" fill="#231f20"/>
  </g>
</svg>
