<svg xmlns="http://www.w3.org/2000/svg" width="111.466mm" height="105.497mm" viewBox="0 0 315.967 299.046">
  <title>L-OUTLINE</title>
  <path d="M51.219,4c54.214,0,98.321,43.723,98.321,97.466v64.039a48.026,48.026,0,0,0-7.151,92.435,45.146,45.146,0,0,0,36.617-1.836,48.214,48.214,0,0,0,26.218-32.428H304.6A7.354,7.354,0,0,1,311.967,231v53.128a10.813,10.813,0,0,1-10.685,10.914H14.685A10.813,10.813,0,0,1,4,284.132V14.915A10.814,10.814,0,0,1,14.685,4H51.219m0-4H14.685A14.818,14.818,0,0,0,0,14.915V284.132a14.818,14.818,0,0,0,14.685,14.914h286.6a14.818,14.818,0,0,0,14.685-14.914V231A11.358,11.358,0,0,0,304.6,219.676H201.955l-.23,1.222a44.16,44.16,0,0,1-24.479,31.614,41.148,41.148,0,0,1-33.469,1.676,44.025,44.025,0,0,1,8.473-85.077l1.29-.182V101.466C153.54,45.518,107.639,0,51.219,0Z" fill="#231f20"/>
</svg>
