<svg xmlns="http://www.w3.org/2000/svg" width="111.466mm" height="105.497mm" viewBox="0 0 315.967 299.046">
  <title>L</title>
  <path d="M301.282,299.046H14.685A14.818,14.818,0,0,1,0,284.131V14.914A14.818,14.818,0,0,1,14.685,0H51.219C107.639,0,153.54,45.518,153.54,101.466v67.463l-1.29.182a44.025,44.025,0,0,0-8.473,85.077,41.143,41.143,0,0,0,33.469-1.677A44.158,44.158,0,0,0,201.725,220.9l.23-1.222H304.6A11.358,11.358,0,0,1,315.967,231v53.127A14.818,14.818,0,0,1,301.282,299.046Z" fill="#231f20"/>
</svg>
