<svg xmlns="http://www.w3.org/2000/svg" width="111.466mm" height="105.378mm" viewBox="0 0 315.967 298.709">
  <title>M-OUTLINE</title>
  <path d="M300.135,4c6.524,0,11.832,4.91,11.832,10.944v268.82c0,6.035-5.308,10.945-11.832,10.945H236.214V197.078a36.192,36.192,0,0,0,15.584-6.853,48.015,48.015,0,1,0-49.457,1.274,39.477,39.477,0,0,0,14.522,5.586v97.624H100.09V196.742a48.023,48.023,0,1,0-36.479-7.419,37.762,37.762,0,0,0,15.44,6.927c.462.115.928.222,1.393.323v98.136H15.833C9.308,294.709,4,289.8,4,283.764V14.944C4,8.91,9.308,4,15.833,4h284.3m0-4H15.833C7.1,0,0,6.7,0,14.944v268.82c0,8.241,7.1,14.945,15.833,14.945H84.444V193.239l-.963-.158c-1.169-.192-2.34-.433-3.523-.727a33.812,33.812,0,0,1-13.94-6.227l-.086-.063a44.013,44.013,0,1,1,31.432,7.1l-1.274.194V298.709H220.863V193.664l-1.287-.185a36.688,36.688,0,0,1-15.107-5.368l-.087-.053a44.018,44.018,0,1,1,45.169-1.144l-.123.086a32.975,32.975,0,0,1-15.927,6.479l-1.287.185V298.709h67.921c8.73,0,15.832-6.7,15.832-14.945V14.944C315.967,6.7,308.865,0,300.135,0Z" fill="#fff"/>
</svg>
