<svg xmlns="http://www.w3.org/2000/svg" width="111.466mm" height="105.378mm" viewBox="0 0 315.967 298.709">
  <title>M</title>
  <path d="M300.135,0H15.833C7.1,0,0,6.7,0,14.945V283.764c0,8.241,7.1,14.945,15.833,14.945H84.444V193.239l-.963-.158c-1.169-.192-2.34-.433-3.523-.727a33.812,33.812,0,0,1-13.94-6.227l-.086-.062a44.014,44.014,0,1,1,31.432,7.1l-1.274.194V298.709H220.863V193.664l-1.287-.185a36.688,36.688,0,0,1-15.107-5.368l-.087-.053a44.018,44.018,0,1,1,45.169-1.144l-.123.087a32.974,32.974,0,0,1-15.927,6.478l-1.287.185V298.709h67.921c8.73,0,15.832-6.7,15.832-14.945V14.945C315.967,6.7,308.865,0,300.135,0Z" fill="#231f20"/>
</svg>
