<svg xmlns="http://www.w3.org/2000/svg" width="111.466mm" height="105.209mm" viewBox="0 0 315.967 298.23">
  <title>N-OUTLINE</title>
  <path d="M301.029,4a10.905,10.905,0,0,1,10.938,10.847V283.383a10.905,10.905,0,0,1-10.938,10.847H95.426V263.524a48.023,48.023,0,1,0-19.148.084V294.23H14.938A10.905,10.905,0,0,1,4,283.383V14.847A10.905,10.905,0,0,1,14.938,4H221.065V35.388a48.009,48.009,0,1,0,19.118-.043V4h60.846m0-4H236.183V38.728l1.272.2a44.031,44.031,0,1,1-13.016-.063l.626-.089V0H14.938A14.909,14.909,0,0,0,0,14.847V283.383A14.909,14.909,0,0,0,14.938,298.23h65.34V260.2l-.606-.083a44.011,44.011,0,1,1,13.016-.16l-1.262.2V298.23h209.6a14.909,14.909,0,0,0,14.938-14.847V14.847A14.909,14.909,0,0,0,301.029,0Z" fill="#fff"/>
</svg>
