<svg xmlns="http://www.w3.org/2000/svg" width="111.572mm" height="105.22mm" viewBox="0 0 316.267 298.261">
  <title>O-OUTLINE</title>
  <g>
    <path d="M301.292,4a10.94,10.94,0,0,1,10.975,10.881v124.75H205.206a48.023,48.023,0,0,0-94.145,0H4V14.881A10.94,10.94,0,0,1,14.975,4H301.292m0-4H14.975A14.946,14.946,0,0,0,0,14.881v128.75H114.454l.1-.7a44.02,44.02,0,0,1,87.161,0l.1.7H316.267V14.881A14.946,14.946,0,0,0,301.292,0Z" fill="#fff"/>
    <path d="M312.267,158.631V283.385a10.938,10.938,0,0,1-10.975,10.876H14.975A10.938,10.938,0,0,1,4,283.385V158.631H111.06a48.024,48.024,0,0,0,94.147,0h107.06m4-4H201.814l-.1.7a44.02,44.02,0,0,1-87.161,0l-.1-.7H0V283.385a14.943,14.943,0,0,0,14.975,14.876H301.292a14.943,14.943,0,0,0,14.975-14.876V154.631Z" fill="#fff"/>
  </g>
</svg>
