<svg xmlns="http://www.w3.org/2000/svg" width="111.572mm" height="105.22mm" viewBox="0 0 316.267 298.261">
  <title>O</title>
  <g>
    <path d="M114.454,143.631l.1-.7a44.02,44.02,0,0,1,87.161,0l.1.7H316.267V14.881A14.946,14.946,0,0,0,301.292,0H14.975A14.946,14.946,0,0,0,0,14.881v128.75Z" fill="#231f20"/>
    <path d="M201.814,154.631l-.1.7a44.02,44.02,0,0,1-87.161,0l-.1-.7H0V283.385a14.943,14.943,0,0,0,14.975,14.876H301.292a14.943,14.943,0,0,0,14.975-14.876V154.631Z" fill="#231f20"/>
  </g>
</svg>
