<svg xmlns="http://www.w3.org/2000/svg" width="111.522mm" height="105.367mm" viewBox="0 0 316.125 298.678">
  <title>P-OUTLINE</title>
  <path d="M301.227,4a10.91,10.91,0,0,1,10.9,10.9V98.362a90.522,90.522,0,0,1-90.419,90.42H164.977a10.264,10.264,0,0,0-10.253,10.253v86.016a9.637,9.637,0,0,1-9.626,9.627H14.9A10.91,10.91,0,0,1,4,283.78V95.625H113.166A46.764,46.764,0,0,0,158.7,132.864a46.449,46.449,0,0,0,2.784-92.814c-.928-.054-1.867-.082-2.792-.082a46.14,46.14,0,0,0-45.349,36.387H4V14.9A10.91,10.91,0,0,1,14.9,4h286.33m0-4H14.9A14.914,14.914,0,0,0,0,14.9V80.355H116.68l.064-.419a42.255,42.255,0,0,1,41.947-35.968c.849,0,1.7.025,2.559.075A42.449,42.449,0,1,1,116.744,92.9l-.2-1.272H0V283.78a14.914,14.914,0,0,0,14.9,14.9H145.1a13.642,13.642,0,0,0,13.626-13.627V199.035a6.26,6.26,0,0,1,6.253-6.253h56.729a94.527,94.527,0,0,0,94.419-94.42V14.9A14.914,14.914,0,0,0,301.227,0Z" fill="#231f20"/>
  <path d="M614.056,3.984a10.981,10.981,0,0,1,11.036,10.9V281.651L540,200.619l-27.487-26.958a47.949,47.949,0,0,0,6.545-21.805l.024-.561c.014-.36.025-.731.031-1.091l0-.137V150c0-.214.007-.429.007-.64,0-.487-.008-.952-.023-1.454l-.026-.692c-.024-.557-.056-1.111-.1-1.662l-2.3.18-.016-.149,2.3-.188a48.013,48.013,0,1,0-19.172,42.453l1.864,1.775,107.13,105.069H328.161a10.981,10.981,0,0,1-11.036-10.9V149.563c0-35.738,14.959-71.836,41.042-99.039,28.776-30.011,68.886-46.54,112.941-46.54H614.056m0-4H471.108c-45.155,0-86.291,16.966-115.829,47.772C328.49,75.7,313.125,112.8,313.125,149.563V283.794a14.985,14.985,0,0,0,15.036,14.9h285.9a15.188,15.188,0,0,0,3.967-.541l-113.587-111.4-4.41-4.2L499,183.39a44.016,44.016,0,1,1,15.976-37.668l1.5-.087-1.487.23c.04.506.069,1.014.091,1.526l.025.668c.013.425.02.852.02,1.3,0,.217,0,.432-.007.647l0,.121c-.006.341-.016.681-.029,1.012l-.024.55a43.892,43.892,0,0,1-7.305,22.037l-.353.529L537.223,203.5l90.764,86.433.633-2.483a14.862,14.862,0,0,0,.472-3.654V14.883a14.985,14.985,0,0,0-15.036-14.9Z" fill="#231f20"/>
</svg>
