<?xml version="1.0" encoding="utf-8"?>
<!-- Generator: Adobe Illustrator 23.0.2, SVG Export Plug-In . SVG Version: 6.00 Build 0)  -->
<svg version="1.1" id="Layer_1" xmlns="http://www.w3.org/2000/svg" xmlns:xlink="http://www.w3.org/1999/xlink" x="0px" y="0px"
	 width="316.1px" height="298.7px" viewBox="0 0 316.1 298.7" style="enable-background:new 0 0 316.1 298.7;" xml:space="preserve"
	>
<style type="text/css">
	.st0{fill:#231F20;}
</style>
<title>P-OUTLINE</title>
<path class="st0" d="M301.2,4c6,0,10.9,4.9,10.9,10.9v83.5c-0.1,49.9-40.5,90.4-90.4,90.4H165c-5.7,0-10.2,4.6-10.3,10.3v86
	c0,5.3-4.3,9.6-9.6,9.6H14.9c-6,0-10.9-4.9-10.9-10.9V95.6h109.2c4.5,21.6,23.5,37.1,45.5,37.2c25.7,0,46.4-20.8,46.4-46.5
	c0-24.6-19.1-44.9-43.7-46.4c-0.9-0.1-1.9-0.1-2.8-0.1C136.9,39.8,118,55,113.3,76.4H4V14.9C4,8.9,8.9,4,14.9,4H301.2 M301.2,0H14.9
	C6.7,0,0,6.7,0,14.9v65.5h116.7l0.1-0.4c3.1-20.7,21-36,41.9-36c0.8,0,1.7,0,2.6,0.1c23.4,1.4,41.2,21.5,39.8,44.9
	c-1.4,23.4-21.5,41.2-44.9,39.8c-19.9-1.2-36.3-16.1-39.4-35.9l-0.2-1.3H0v192.2c0,8.2,6.7,14.9,14.9,14.9h130.2
	c7.5,0,13.6-6.1,13.6-13.6v-86c0-3.5,2.8-6.2,6.3-6.3h56.7c52.1-0.1,94.4-42.3,94.4-94.4V14.9C316.1,6.7,309.5,0,301.2,0L301.2,0z"
	/>
</svg>
