<?xml version="1.0" encoding="utf-8"?>

<svg version="1.1" id="Layer_1" xmlns="http://www.w3.org/2000/svg" xmlns:xlink="http://www.w3.org/1999/xlink" x="0px" y="0px"
	 width="316.1px" height="298.7px" viewBox="0 0 316.1 298.7" style="enable-background:new 0 0 316.1 298.7;" xml:space="preserve"
	>
<style type="text/css">
	.st0{fill:#fff;}
</style>
<title>P</title>
<path class="st0" d="M301.2,0H14.9C6.7,0,0,6.7,0,14.9v65.5h116.7l0.1-0.4c3.6-23.2,25.3-39.1,48.4-35.5s39.1,25.3,35.5,48.4
	c-3.2,20.7-21,36-42,36c-20.9-0.1-38.7-15.3-42-36l-0.2-1.3H0v192.2c0,8.2,6.7,14.9,14.9,14.9h130.2c7.5,0,13.6-6.1,13.6-13.6v-86
	c0-3.5,2.8-6.2,6.3-6.3h56.7c52.1-0.1,94.4-42.3,94.4-94.4V14.9C316.1,6.7,309.5,0,301.2,0z" />
</svg>
