<svg xmlns="http://www.w3.org/2000/svg" width="111.522mm" height="105.367mm" viewBox="0 0 316.125 298.678">
  <title>P</title>
  <path d="M301.227,0H14.9A14.914,14.914,0,0,0,0,14.9V80.355H116.68l.064-.419A42.451,42.451,0,1,1,158.7,128.864,42.707,42.707,0,0,1,116.744,92.9l-.2-1.272H0V283.78a14.914,14.914,0,0,0,14.9,14.9H145.1a13.642,13.642,0,0,0,13.626-13.627V199.035a6.26,6.26,0,0,1,6.253-6.253h56.729a94.527,94.527,0,0,0,94.419-94.42V14.9A14.914,14.914,0,0,0,301.227,0Z" fill="#fff"/>
  <path d="M504.436,186.748l-4.41-4.2L499,183.39a44.016,44.016,0,1,1,15.976-37.668l1.5-.087-1.487.23c.04.506.069,1.014.091,1.526l.025.668c.013.425.02.852.02,1.3,0,.216,0,.431-.007.647l0,.12c-.006.341-.016.681-.029,1.012l-.024.55a43.882,43.882,0,0,1-7.305,22.037l-.353.529L537.223,203.5l90.764,86.433.633-2.483a14.856,14.856,0,0,0,.472-3.654V14.883a14.985,14.985,0,0,0-15.036-14.9H471.108c-45.155,0-86.291,16.966-115.829,47.772C328.49,75.7,313.125,112.8,313.125,149.563V283.794a14.984,14.984,0,0,0,15.036,14.9h285.9a15.146,15.146,0,0,0,3.967-.541Z" fill="#fff"/>
</svg>
