<?xml version="1.0" encoding="utf-8"?>
<!-- Generator: Adobe Illustrator 23.0.2, SVG Export Plug-In . SVG Version: 6.00 Build 0)  -->
<svg version="1.1" id="Layer_1" xmlns="http://www.w3.org/2000/svg" xmlns:xlink="http://www.w3.org/1999/xlink" x="0px" y="0px"
	 width="316px" height="298.7px" viewBox="0 0 316 298.7" style="enable-background:new 0 0 316 298.7;" xml:space="preserve">
<style type="text/css">
	.st0{fill:#fff;}
</style>
<title>Q-OUTLINE</title>
<path class="st0" d="M300.9,4c6.1,0,11,4.8,11,10.9v266.8l-85.1-81l-27.5-27c3.9-6.6,6.1-14.1,6.5-21.8l0-0.6c0-0.4,0-0.7,0-1.1
	v-0.1V150c0-0.2,0-0.4,0-0.6c0-0.5,0-1,0-1.5l0-0.7c0-0.6-0.1-1.1-0.1-1.7l-2.3,0.2l0-0.1l2.3-0.2c-2.2-26.4-25.4-46.1-51.8-43.9
	s-46.1,25.4-43.9,51.8s25.4,46.1,51.8,43.9c9-0.7,17.5-4,24.7-9.3l1.9,1.8l107.1,105.1H15c-6.1,0-11-4.8-11-10.9V149.6
	c0-35.7,15-71.8,41-99C73.8,20.5,113.9,4,158,4H300.9 M300.9,0H158C112.8,0,71.7,17,42.2,47.8C15.4,75.7,0,112.8,0,149.6v134.2
	c0,8.3,6.8,14.9,15,14.9h285.9c1.3,0,2.7-0.2,4-0.5L191.3,186.8l-4.4-4.2l-1,0.8c-18.8,15.4-46.5,12.6-61.9-6.2s-12.6-46.5,6.2-61.9
	s46.5-12.6,61.9,6.2c5.7,6.9,9.1,15.4,9.8,24.3l1.5-0.1l-1.5,0.2c0,0.5,0.1,1,0.1,1.5l0,0.7c0,0.4,0,0.9,0,1.3c0,0.2,0,0.4,0,0.6
	v0.1c0,0.3,0,0.7,0,1l0,0.5c-0.4,7.9-2.9,15.5-7.3,22l-0.4,0.5l29.8,29.2l90.8,86.4l0.6-2.5c0.3-1.2,0.5-2.4,0.5-3.7V14.9
	C315.9,6.6,309.2,0,300.9,0z"/>
</svg>
