<svg xmlns="http://www.w3.org/2000/svg" width="111.466mm" height="105.378mm" viewBox="0 0 315.967 298.709">
  <title>Q-OUTLINE</title>
  <path d="M-11.9,4.016A10.91,10.91,0,0,1-1,14.913V98.378A90.522,90.522,0,0,1-91.419,188.8h-56.729A10.265,10.265,0,0,0-158.4,199.05v86.016a9.637,9.637,0,0,1-9.626,9.627h-130.2a10.91,10.91,0,0,1-10.9-10.9V95.64h109.166a46.764,46.764,0,0,0,45.533,37.24,46.009,46.009,0,0,0,33.875-14.669,46.081,46.081,0,0,0,12.478-34.806,46.412,46.412,0,0,0-43.569-43.34c-.928-.054-1.867-.081-2.792-.081a46.139,46.139,0,0,0-45.349,36.387H-309.125V14.913a10.91,10.91,0,0,1,10.9-10.9H-11.9m0-4h-286.33a14.914,14.914,0,0,0-14.9,14.9V80.371h116.68l.064-.419a42.254,42.254,0,0,1,41.947-35.968c.849,0,1.7.025,2.559.075a42.406,42.406,0,0,1,39.81,39.6,42.124,42.124,0,0,1-11.4,31.815,42.049,42.049,0,0,1-30.959,13.406,42.708,42.708,0,0,1-41.955-35.967l-.2-1.273H-313.125V283.8a14.914,14.914,0,0,0,14.9,14.9h130.2A13.642,13.642,0,0,0-154.4,285.066V199.05a6.261,6.261,0,0,1,6.253-6.253h56.729A94.526,94.526,0,0,0,3,98.378V14.913A14.914,14.914,0,0,0-11.9.016Z" fill="#231f20"/>
  <path d="M300.931,4a10.981,10.981,0,0,1,11.036,10.9V281.667l-85.091-81.033-27.487-26.957a47.949,47.949,0,0,0,6.545-21.8l.024-.561c.014-.361.025-.731.031-1.092l0-.136v-.066c0-.214.007-.429.007-.641,0-.486-.008-.952-.023-1.453l-.026-.692c-.024-.557-.056-1.111-.1-1.662l-2.3.18-.016-.149,2.3-.188a48.015,48.015,0,1,0-19.172,42.452l1.864,1.775,107.13,105.07H15.036A10.981,10.981,0,0,1,4,283.81V149.578C4,113.84,18.959,77.742,45.042,50.54,73.818,20.528,113.928,4,157.983,4H300.931m0-4H157.983C112.828,0,71.692,16.965,42.154,47.771,15.365,75.711,0,112.819,0,149.578V283.81a14.985,14.985,0,0,0,15.036,14.9h285.9a15.147,15.147,0,0,0,3.967-.542l-113.587-111.4-4.41-4.2-1.025.841a44.017,44.017,0,1,1,15.976-37.668l1.5-.088-1.487.231c.04.5.069,1.014.091,1.525l.025.669c.013.425.02.851.02,1.3,0,.216,0,.432-.007.647l0,.12c-.006.341-.016.682-.029,1.013l-.024.549a43.885,43.885,0,0,1-7.305,22.037l-.353.53L224.1,203.513l90.764,86.433.633-2.483a14.854,14.854,0,0,0,.472-3.653V14.9A14.985,14.985,0,0,0,300.931,0Z" fill="#231f20"/>
</svg>
