<svg xmlns="http://www.w3.org/2000/svg" width="111.466mm" height="105.378mm" viewBox="0 0 315.967 298.709">
  <title>Q</title>
  <path d="M-11.9.016h-286.33a14.914,14.914,0,0,0-14.9,14.9V80.371h116.68l.064-.419a42.279,42.279,0,0,1,44.506-35.893,42.406,42.406,0,0,1,39.81,39.6,42.124,42.124,0,0,1-11.4,31.815,42.049,42.049,0,0,1-30.959,13.406,42.708,42.708,0,0,1-41.955-35.967l-.2-1.273H-313.125V283.8a14.914,14.914,0,0,0,14.9,14.9h130.2A13.641,13.641,0,0,0-154.4,285.067V199.051a6.261,6.261,0,0,1,6.253-6.254h56.729A94.526,94.526,0,0,0,3,98.378V14.913A14.914,14.914,0,0,0-11.9.016Z" fill="#fff"/>
  <path d="M191.311,186.764l-4.41-4.2-1.025.841a44.016,44.016,0,1,1,15.976-37.668l1.5-.088-1.487.231c.04.5.069,1.014.091,1.525l.025.669c.013.425.02.851.02,1.3,0,.216,0,.432-.007.647l0,.12c-.006.341-.016.682-.029,1.013l-.024.549a43.876,43.876,0,0,1-7.305,22.037l-.353.53L224.1,203.513l90.764,86.434.633-2.483a14.868,14.868,0,0,0,.472-3.654V14.9A14.985,14.985,0,0,0,300.931,0H157.983C112.828,0,71.692,16.966,42.154,47.772,15.365,75.712,0,112.819,0,149.578V283.81a14.985,14.985,0,0,0,15.036,14.9h285.9a15.147,15.147,0,0,0,3.967-.542Z" fill="#fff"/>
</svg>
