<?xml version="1.0" encoding="utf-8"?>
<!-- Generator: Adobe Illustrator 23.0.2, SVG Export Plug-In . SVG Version: 6.00 Build 0)  -->
<svg version="1.1" id="Layer_1" xmlns="http://www.w3.org/2000/svg" xmlns:xlink="http://www.w3.org/1999/xlink" x="0px" y="0px"
	 width="316px" height="298.7px" viewBox="0 0 316 298.7" style="enable-background:new 0 0 316 298.7;" xml:space="preserve">
<style type="text/css">
	.st0{fill:#fff;}
</style>
<title>Q</title>
<path class="st0" d="M191.3,186.8l-4.4-4.2l-1,0.8c-18.8,15.4-46.5,12.6-61.9-6.2s-12.6-46.5,6.2-61.9s46.5-12.6,61.9,6.2
	c5.7,6.9,9.1,15.4,9.8,24.3l1.5-0.1l-1.5,0.2c0,0.5,0.1,1,0.1,1.5l0,0.7c0,0.4,0,0.9,0,1.3c0,0.2,0,0.4,0,0.6v0.1c0,0.3,0,0.7,0,1
	l0,0.5c-0.4,7.9-2.9,15.5-7.3,22l-0.4,0.5l29.8,29.2l90.8,86.4l0.6-2.5c0.3-1.2,0.5-2.4,0.5-3.7V14.9c0-8.3-6.8-14.9-15-14.9H158
	C112.8,0,71.7,17,42.2,47.8C15.4,75.7,0,112.8,0,149.6v134.2c0,8.3,6.8,14.9,15,14.9h285.9c1.3,0,2.7-0.2,4-0.5L191.3,186.8z"/>
</svg>
