<svg xmlns="http://www.w3.org/2000/svg" width="111.452mm" height="105.893mm" viewBox="0 0 315.928 300.17">
  <title>R-OUTLINE</title>
  <g>
    <path d="M300.957,4a10.983,10.983,0,0,1,10.971,10.971V82.858l-.294-.127.229,6.336c.044,1.236.065,2.26.065,3.218L311.9,115.1c-.038,26.56-16.559,53.443-42.089,68.486-11.15,6.571-22.867,10.044-33.884,10.044a47.866,47.866,0,0,1-22.457-5.407l-39.63-38.2a46.927,46.927,0,0,0-15.874-91.085A47.229,47.229,0,0,0,112.043,96.2H4V14.971A10.983,10.983,0,0,1,14.971,4H300.957m0-4H14.971A14.988,14.988,0,0,0,0,14.971V100.2H115.408l.125-.824a42.921,42.921,0,1,1,52.407,48.23l-1.9.453L211.1,191.49a51.96,51.96,0,0,0,24.829,6.137c11.65,0,23.967-3.556,35.915-10.6,26.724-15.748,44.018-43.982,44.058-71.927l.03-22.813c0-1.128-.028-2.249-.068-3.367l.068.029V14.971A14.988,14.988,0,0,0,300.957,0Z" fill="#231f20"/>
    <path d="M111.978,115.2a47.014,47.014,0,0,0,35.85,36.474l.2.19,7.182,6.815,6.753,6.407v-.118L298,296.081H14.971A10.981,10.981,0,0,1,4,285.115V115.2H111.978m3.381-4H0V285.115a14.985,14.985,0,0,0,14.971,14.966H300.957c.234,0,.725.012,1.348.027,1.118.026,2.643.062,3.9.062h.162l1.638,0L157.964,155.557v.22l-7.182-6.815c-.114-.154-.233-.311-.352-.465l-.345-.443-.551-.109A42.98,42.98,0,0,1,115.543,112.4l-.184-1.2Z" fill="#231f20"/>
  </g>
</svg>
