<svg xmlns="http://www.w3.org/2000/svg" width="111.452mm" height="105.893mm" viewBox="0 0 315.928 300.17">
  <title>R</title>
  <g>
    <path d="M115.408,100.2l.125-.824a42.921,42.921,0,1,1,52.407,48.23l-1.9.453L211.1,191.49a51.96,51.96,0,0,0,24.829,6.137c11.65,0,23.967-3.556,35.915-10.6,26.724-15.749,44.018-43.982,44.058-71.927l.03-22.813c0-1.128-.028-2.249-.068-3.367l.068.029V14.971A14.988,14.988,0,0,0,300.957,0H14.971A14.988,14.988,0,0,0,0,14.971V100.2Z" fill="#231f20"/>
    <path d="M157.964,155.557v.22l-7.182-6.815c-.114-.154-.233-.311-.352-.465l-.345-.443-.551-.109A42.98,42.98,0,0,1,115.543,112.4l-.184-1.2H0V285.115a14.986,14.986,0,0,0,14.971,14.966H300.957c.234,0,.725.012,1.348.027,1.118.026,2.643.062,3.9.062h.162l1.638,0Z" fill="#231f20"/>
  </g>
</svg>
