<svg xmlns="http://www.w3.org/2000/svg" width="110.958mm" height="105.393mm" viewBox="0 0 314.527 298.753">
  <title>S-OUTLINE</title>
  <path d="M299.626,4a10.913,10.913,0,0,1,10.9,10.9V77.118H137.247a46.153,46.153,0,0,0-45.5-37.076c-.925,0-1.865.027-2.792.081a46.46,46.46,0,1,0,48.243,56h74.024A108.842,108.842,0,0,1,310.527,204.4v79.45a10.913,10.913,0,0,1-10.9,10.9H14.9A10.913,10.913,0,0,1,4,283.852V220.429H178.26a46.774,46.774,0,0,0,45.544,37.25,46.46,46.46,0,0,0,2.783-92.837c-.93-.054-1.872-.082-2.8-.082a46.147,46.147,0,0,0-45.365,36.461H72.275A79.571,79.571,0,0,1,4,122.7V14.9A10.913,10.913,0,0,1,14.9,4H299.626m0-4H14.9A14.918,14.918,0,0,0,0,14.9V122.7a83.425,83.425,0,0,0,72,82.526H181.763l.074-.484a42.264,42.264,0,0,1,41.95-35.977c.852,0,1.706.025,2.567.075A42.46,42.46,0,1,1,181.837,217.7l-.194-1.273H0v67.423a14.918,14.918,0,0,0,14.9,14.9H299.626a14.918,14.918,0,0,0,14.9-14.9V204.4A112.842,112.842,0,0,0,211.389,92.118H133.834l-.132.864a42.719,42.719,0,0,1-41.968,35.977,42.46,42.46,0,0,1-2.549-84.843c.856-.05,1.712-.074,2.559-.074A42.282,42.282,0,0,1,133.7,80.017l.168,1.1H314.527V14.9A14.918,14.918,0,0,0,299.626,0Z" fill="#231f20"/>
</svg>
