<svg xmlns="http://www.w3.org/2000/svg" width="110.958mm" height="105.393mm" viewBox="0 0 314.527 298.753">
  <title>S</title>
  <path d="M211.389,92.118H133.834l-.132.864A42.72,42.72,0,0,1,91.734,128.96,42.46,42.46,0,1,1,133.7,80.017l.168,1.1H314.527V14.9A14.918,14.918,0,0,0,299.626,0H14.9A14.918,14.918,0,0,0,0,14.9V122.7a83.425,83.425,0,0,0,72,82.526H181.763l.074-.484A42.464,42.464,0,1,1,223.8,253.679,42.72,42.72,0,0,1,181.837,217.7l-.194-1.273H0v67.423a14.918,14.918,0,0,0,14.9,14.9H299.626a14.918,14.918,0,0,0,14.9-14.9V204.4A112.843,112.843,0,0,0,211.389,92.118Z" fill="#fff"/>
</svg>
