<svg xmlns="http://www.w3.org/2000/svg" width="110.972mm" height="105.209mm" viewBox="0 0 314.565 298.23">
  <title>T-OUTLINE</title>
  <path d="M299.734,4a10.842,10.842,0,0,1,10.831,10.831V74.68H279.547A46.556,46.556,0,0,0,234.41,38.474a46.23,46.23,0,0,0-2.769,92.377c.927.054,1.864.081,2.787.081a45.917,45.917,0,0,0,45.3-37.054h30.808a123.48,123.48,0,0,1-26.569,73.11C266.9,188.735,244.231,202.946,220.138,207l-3.336.562v74.253a12.426,12.426,0,0,1-12.411,12.412H110.176a12.425,12.425,0,0,1-12.411-12.412V207.565L94.429,207c-24.094-4.057-46.763-18.268-63.832-40.015a123.474,123.474,0,0,1-26.57-73.11H46.482A46.547,46.547,0,0,0,91.8,130.932a46.23,46.23,0,0,0,2.772-92.377c-.925-.054-1.863-.081-2.787-.081A45.918,45.918,0,0,0,46.657,74.68H4V14.831A10.843,10.843,0,0,1,14.831,4h284.9m0-4H14.831A14.848,14.848,0,0,0,0,14.831V78.68H49.994l.065-.424A42.05,42.05,0,0,1,91.784,42.474q1.27,0,2.553.074a42.23,42.23,0,1,1-44.277,48.6l-.2-1.273H0v1.5c0,57.514,41.946,110.843,93.765,119.57v70.87a16.43,16.43,0,0,0,16.411,16.412h94.215A16.431,16.431,0,0,0,220.8,281.818v-70.87c51.818-8.727,93.763-62.056,93.763-119.57v-1.5h-38.22l-.2,1.273a42.044,42.044,0,0,1-41.722,35.781q-1.271,0-2.553-.075a42.23,42.23,0,1,1,44.275-48.6l.065.424h38.35V14.831A14.848,14.848,0,0,0,299.734,0Z" fill="#231f20"/>
</svg>
