<svg xmlns="http://www.w3.org/2000/svg" width="110.972mm" height="105.209mm" viewBox="0 0 314.565 298.23">
  <title>T</title>
  <path d="M276.15,91.151a42.23,42.23,0,1,1,0-12.895l.065.424h38.35V14.831A14.848,14.848,0,0,0,299.734,0H14.831A14.848,14.848,0,0,0,0,14.831V78.68H49.994l.065-.424a42.232,42.232,0,1,1,0,12.895l-.2-1.273H0v1.5c0,57.514,41.946,110.843,93.765,119.57v70.87a16.431,16.431,0,0,0,16.411,16.412h94.215A16.431,16.431,0,0,0,220.8,281.818v-70.87c51.818-8.727,93.763-62.056,93.763-119.57v-1.5h-38.22Z" fill="#231f20"/>
</svg>
