<svg xmlns="http://www.w3.org/2000/svg" width="111.466mm" height="105.209mm" viewBox="0 0 315.968 298.23">
  <title>U-OUTLINE</title>
  <path d="M301.005,4a10.86,10.86,0,0,1,10.963,10.728V283.5a10.859,10.859,0,0,1-10.963,10.727H14.963A10.859,10.859,0,0,1,4,283.5V14.728A10.86,10.86,0,0,1,14.963,4H148.484v98.244a47.833,47.833,0,1,0,19,0V4H301.005m0-4H163.484V105.628l1.019.153a43.833,43.833,0,1,1-13.038,0l1.019-.152V0H14.963A14.864,14.864,0,0,0,0,14.728V283.5A14.863,14.863,0,0,0,14.963,298.23H301.005A14.863,14.863,0,0,0,315.968,283.5V14.728A14.864,14.864,0,0,0,301.005,0Z" fill="#231f20"/>
</svg>
