<svg xmlns="http://www.w3.org/2000/svg" width="111.466mm" height="105.246mm" viewBox="0 0 315.968 298.336">
  <title>V</title>
  <path d="M315.968,14.751A14.875,14.875,0,0,0,301.005,0H163.484V106.086l1.017.153a42.357,42.357,0,0,1,34.732,30.766A42.764,42.764,0,1,1,115.3,148.93l-.015-1.486h-.253a43.105,43.105,0,0,1,1.71-10.472,42.345,42.345,0,0,1,34.724-30.733l1.016-.153V0H14.963A14.875,14.875,0,0,0,0,14.751V139.92c0,2.444.063,4.919.192,7.524H0v1.5C0,186.228,14.6,221.9,41.1,249.449v32.489a16.461,16.461,0,0,0,16.561,16.323h95.5c1.788.05,3.364.075,4.816.075s3.028-.025,4.774-.075H258.3a16.46,16.46,0,0,0,16.559-16.323V249.449c26.51-27.551,41.105-63.221,41.105-100.505v-1.5h-.193c.128-2.581.193-5.1.193-7.524Z" fill="#231f20"/>
</svg>
