<svg xmlns="http://www.w3.org/2000/svg" width="111.466mm" height="105.341mm" viewBox="0 0 315.967 298.605">
  <title>W-OUTLINE</title>
  <path d="M153.249,1.718l.068,2.359C155.176,4.023,156.63,4,158.03,4s2.855.023,4.715.077h.062l.148,0h48.761v99.729a46.9,46.9,0,1,0,19.535-.027l0-89.1.013-2.17.054-8.435h68.736c6.568,0,11.911,4.775,11.911,10.646V154.163l-.374,5.177c-2.593,35.954-19.22,69.568-46.817,94.65-28.819,26.191-66.727,40.615-106.744,40.615-40.752,0-79.19-14.942-108.232-42.076C20.843,225.476,4.616,189.474,4.109,151.155l-.057-3.7-.052,0V14.726C4,8.855,9.344,4.08,15.913,4.08h66.62v99.784a46.882,46.882,0,1,0,19.637-.114v-73.2l.208-26.466H153.1V1.728l.152-.01M158.03,0c-1.5,0-3,.026-4.828.079l.043,1.5L153.1.08H98.409L98.17,30.515v76.6l1.264.2a42.892,42.892,0,1,1-14.008.062l1.107-.187V.08H15.913C7.139.08,0,6.65,0,14.726V149.8l.1,1.405H.109c1.079,81.454,71.506,147.4,157.922,147.4,41.014,0,79.878-14.793,109.434-41.655,28.46-25.866,45.446-60.293,48.117-97.323l.384.5V14.726C315.967,6.65,308.829.08,300.056.08H227.345l-.078,12.41-.014,0,0,94.647,1.259.2a42.878,42.878,0,1,1-13.809-.019l1.015-.163V.08H163.008l-.149,0C161.027.026,159.528,0,158.03,0Z" fill="#231f20"/>
</svg>
