<svg xmlns="http://www.w3.org/2000/svg" width="111.466mm" height="105.341mm" viewBox="0 0 315.967 298.605">
  <title>W</title>
  <path d="M300.056.08H227.345l-.078,12.41-.014,0,0,94.647,1.259.2a42.878,42.878,0,1,1-13.809-.019l1.015-.163V.08H163.008l-.149,0c-3.665-.1-5.994-.1-9.657,0l.043,1.5L153.1.08H98.409L98.17,30.515v76.6l1.264.2a42.892,42.892,0,1,1-14.008.062l1.107-.187V.08H15.913C7.139.08,0,6.65,0,14.726V149.8l.1,1.4H.109c1.079,81.454,71.506,147.4,157.922,147.4,41.014,0,79.878-14.793,109.434-41.655,28.46-25.866,45.446-60.293,48.117-97.323l.384.5V14.726C315.967,6.65,308.829.08,300.056.08Z" fill="#fff"/>
</svg>
