<svg xmlns="http://www.w3.org/2000/svg" width="111.576mm" height="105.98mm" viewBox="0 0 316.277 300.415">
  <title>X</title>
  <g>
    <path d="M152.338,192.515l-.717-.11a42.988,42.988,0,0,1-35.679-35.681l-.156-1.017H81.1A87.981,87.981,0,0,0,0,243.416v35.96a21.128,21.128,0,0,0,.155,2.453v3.75a14.916,14.916,0,0,0,14.963,14.836h137.22Z" fill="#231f20"/>
    <path d="M81.139,144.707h34.647l.156-1.019a42.989,42.989,0,0,1,35.679-35.678l.717-.11V0H15.118A14.916,14.916,0,0,0,.155,14.835v3.75A21.128,21.128,0,0,0,0,21.038V57A87.98,87.98,0,0,0,81.139,144.707Z" fill="#231f20"/>
    <path d="M235.178,155.707H200.492l-.155,1.017a42.991,42.991,0,0,1-35.681,35.681l-1.282.2V200.3h-.036v22.816h.036v77.3H301.159a14.916,14.916,0,0,0,14.963-14.836V281.83a21.128,21.128,0,0,0,.155-2.453V243.415A87.98,87.98,0,0,0,235.178,155.707Z" fill="#231f20"/>
    <path d="M316.122,18.584V14.835A14.916,14.916,0,0,0,301.159,0H163.374V74.552h-.036v30.833h.036v2.429l1.282.2a42.992,42.992,0,0,1,35.681,35.678l.155,1.019h34.647A87.98,87.98,0,0,0,316.277,57V21.038A21.159,21.159,0,0,0,316.122,18.584Z" fill="#231f20"/>
  </g>
</svg>
