<svg xmlns="http://www.w3.org/2000/svg" width="111.032mm" height="105.378mm" viewBox="0 0 314.735 298.709">
  <title>Y-OUTLINE</title>
  <g>
    <path d="M4,16.08l113.7,108.9a46.136,46.136,0,0,0-6.913,24.372,46.776,46.776,0,0,0,36.93,45.474v99.881H74.757a7.517,7.517,0,0,1-7.508-7.509V266.574l-1.694-1.2A148.579,148.579,0,0,1,20.93,215.664,136.364,136.364,0,0,1,4,149.578V16.08M1.51,8.155.9,9.823A14.874,14.874,0,0,0,0,14.9V149.578a140.319,140.319,0,0,0,17.42,68,152.514,152.514,0,0,0,45.829,51.064V287.2a11.521,11.521,0,0,0,11.508,11.509h76.961V191.462l-.958-.147a42.714,42.714,0,0,1-35.972-41.961,42.174,42.174,0,0,1,7.67-24.324l.432-.616L1.51,8.155Z" fill="#231f20"/>
    <path d="M298.048,4,184.207,111.359a46.421,46.421,0,0,0-53.231-.138l-3.064-2.933-1.469-1.406h0l-3.119-2.985L18.971,4H298.048m1.788-4H15.153A14.851,14.851,0,0,0,12.7.217L9.747.707,120.558,106.785l-.088.079,4.582,4.388c.032-.024.063-.05.094-.074l5.508,5.272,1.021-.783a42.408,42.408,0,0,1,52,.281l.817.641L306.52,1.509,305.094.97A14.843,14.843,0,0,0,299.836,0Z" fill="#231f20"/>
    <path d="M310.735,18.4V148.177q0,.363,0,.725v.077l0,.6a136.356,136.356,0,0,1-16.93,66.083,148.571,148.571,0,0,1-44.624,49.714l-1.694,1.195V287.2a7.516,7.516,0,0,1-7.508,7.508H166.718V194.89a46.771,46.771,0,0,0,37.229-45.536,46.2,46.2,0,0,0-6.754-24.125l72.854-68.706L310.735,18.4M314.1,9.77,267.312,53.6l-75.3,71.017.534.779a42.212,42.212,0,0,1,7.405,23.954,42.714,42.714,0,0,1-35.97,41.961l-1.259.193v107.2h77.261A11.521,11.521,0,0,0,251.487,287.2V268.643a152.53,152.53,0,0,0,45.828-51.064,140.307,140.307,0,0,0,17.42-68l0-.63q0-.384,0-.771V14.9a14.849,14.849,0,0,0-.2-2.329l-.438-2.8Z" fill="#231f20"/>
  </g>
</svg>
