<svg xmlns="http://www.w3.org/2000/svg" width="111.032mm" height="105.378mm" viewBox="0 0 314.735 298.709">
  <title>Y</title>
  <g>
    <path d="M151.718,191.462l-.958-.147a42.714,42.714,0,0,1-35.972-41.961,42.174,42.174,0,0,1,7.67-24.324l.432-.616L1.51,8.156.9,9.823A14.874,14.874,0,0,0,0,14.9V149.578a140.319,140.319,0,0,0,17.42,68,152.5,152.5,0,0,0,45.829,51.064V287.2a11.521,11.521,0,0,0,11.508,11.509h76.961Z" fill="#231f20"/>
    <path d="M120.47,106.864l4.582,4.388c.032-.024.063-.05.094-.074l5.508,5.272,1.021-.783a42.408,42.408,0,0,1,52,.281l.817.642L306.52,1.509,305.094.97A14.843,14.843,0,0,0,299.836,0H15.153A14.851,14.851,0,0,0,12.7.217L9.747.707,120.558,106.785Z" fill="#231f20"/>
    <path d="M314.1,9.77,267.312,53.6l-75.3,71.017.534.779a42.212,42.212,0,0,1,7.405,23.954,42.713,42.713,0,0,1-35.97,41.961l-1.259.193v107.2h77.261A11.521,11.521,0,0,0,251.487,287.2V268.643a152.52,152.52,0,0,0,45.828-51.064,140.307,140.307,0,0,0,17.42-68l0-.63q0-.384,0-.771V14.9a14.858,14.858,0,0,0-.2-2.329Z" fill="#231f20"/>
  </g>
</svg>
