<svg xmlns="http://www.w3.org/2000/svg" width="111.466mm" height="105.314mm" viewBox="0 0 315.968 298.529">
  <title>Z-OUTLINE</title>
  <path d="M301.076,4a10.9,10.9,0,0,1,10.892,10.891V119.843c0,20.666-13.228,41.292-37.247,58.079-18.271,12.771-41.566,21.836-62.363,24.276h-7.922a46.891,46.891,0,1,0-45.874,56.618A46.608,46.608,0,0,0,204.514,221.3H311.968v62.34a10.9,10.9,0,0,1-10.892,10.891H14.891A10.9,10.9,0,0,1,4,283.638V238.48c0-40.263,9.408-74.654,27.207-99.456,18.881-26.312,47.082-40.894,81.635-42.239a46.9,46.9,0,1,0-.38-19.053H4V14.891A10.9,10.9,0,0,1,14.891,4H301.076m0-4H14.891A14.908,14.908,0,0,0,0,14.891V81.732H115.911l.1-.782a42.876,42.876,0,1,1,.339,13l-.219-1.219h-1.742c-36.6.974-66.485,16.165-86.43,43.96C9.667,162.178,0,197.375,0,238.48v45.158a14.908,14.908,0,0,0,14.891,14.891H301.076a14.909,14.909,0,0,0,14.892-14.891V217.3H201.136l-.2,1.269a42.89,42.89,0,1,1-42.376-49.528A43.109,43.109,0,0,1,200.984,205.6l.089.6H212.59c21.415-2.465,45.261-11.6,64.423-25,25.121-17.558,38.955-39.349,38.955-61.358V14.891A14.909,14.909,0,0,0,301.076,0Z" fill="#fff"/>
</svg>
