<svg xmlns="http://www.w3.org/2000/svg" width="111.466mm" height="105.314mm" viewBox="0 0 315.968 298.529">
  <title>Z</title>
  <path d="M200.938,218.567a42.89,42.89,0,1,1-42.376-49.528,43.109,43.109,0,0,1,42.422,36.555l.089.6H212.59c21.415-2.465,45.261-11.6,64.423-25,25.121-17.558,38.955-39.349,38.955-61.358V14.891A14.909,14.909,0,0,0,301.076,0H14.891A14.908,14.908,0,0,0,0,14.891V81.732H115.911l.1-.782a42.876,42.876,0,1,1,.339,13l-.219-1.219h-1.742c-36.6.974-66.485,16.165-86.43,43.96C9.667,162.177,0,197.375,0,238.48v45.158a14.908,14.908,0,0,0,14.891,14.891H301.076a14.909,14.909,0,0,0,14.892-14.891V217.3H201.136Z" fill="#fff"/>
</svg>
