<svg xmlns="http://www.w3.org/2000/svg" width="113.263mm" height="107.292mm" viewBox="0 0 321.06 304.134">
  <title>0 - Outline</title>
  <path d="M160.529,5c4.68,0,9.487.21,14.286.624l.171.014H316.06V152.065c0,78.515-64.909,143.034-147.77,146.884-2.639.122-5.25.183-7.761.183l-4,0H5V152.146C5,115.208,19.506,79.9,45.849,52.729,72.042,25.712,107.633,8.99,146.068,5.636l.047,0,.083,0,.084-.007C151.024,5.209,155.818,5,160.529,5M128.275,112.98a35.691,35.691,0,0,0-7.062,6.937,51.455,51.455,0,1,0,7.062-6.937M160.529,1c-4.811,0-9.756.216-14.594.638l-.13.006c-39.427,3.419-75.946,20.573-102.827,48.3C15.907,77.867,1,114.133,1,152.146V303.134H160.529v0c2.576,0,5.233-.062,7.945-.187,85-3.949,151.586-70.224,151.586-150.88V1.638h-144.9C170.241,1.214,165.319,1,160.529,1Zm.1,199.407a47.438,47.438,0,0,1-36.291-77.988,31.8,31.8,0,0,1,6.394-6.278,47.437,47.437,0,1,1,29.9,84.266Z" fill="#231f20" stroke="#231f20" stroke-miterlimit="10" stroke-width="2"/>
</svg>
