<svg xmlns="http://www.w3.org/2000/svg" width="113.195mm" height="106.891mm" viewBox="0 0 320.867 302.997">
  <title>2 - Outline</title>
  <path d="M304.779,5a11.058,11.058,0,0,1,11.088,11V88.8a110.867,110.867,0,0,1-32.554,78.7,112.827,112.827,0,0,1-70.04,32.774h-7a48.674,48.674,0,0,0-45.84-32.756A48.436,48.436,0,0,0,112,216.65a48.807,48.807,0,0,0,47.5,47.728q.476.009.949.009a48.443,48.443,0,0,0,48.306-45.121H315.867v67.728a11.058,11.058,0,0,1-11.085,11L5.028,297.759a109.853,109.853,0,0,1,41.3-83.627l41.514-33.458,59.525-46.922a48.469,48.469,0,0,0,50.692-16.15l.07-.072.157-.159.137-.177A50.758,50.758,0,0,0,208.872,87.1,48.439,48.439,0,1,0,129.053,124l-20.841,16.429a76.213,76.213,0,0,1-34.535,8.4,74.092,74.092,0,0,1-26.645-4.954C21.106,133.917,5,110.57,5,82.938V16A11.058,11.058,0,0,1,16.087,5H304.779m0-4H16.087A15.062,15.062,0,0,0,1,16V82.938c0,29.328,17.089,54.106,44.6,64.665a78.21,78.21,0,0,0,28.078,5.22,79.848,79.848,0,0,0,36.708-9.017l24.982-19.694.155-.172-1.337-.981A44.438,44.438,0,1,1,204.872,87.1a46.72,46.72,0,0,1-9.6,27.63l-.2.208a44.466,44.466,0,0,1-48.536,14.378L85.367,177.533,43.82,211.018A113.853,113.853,0,0,0,1,300.257v1.5L304.779,302a15.062,15.062,0,0,0,15.088-15V215.266H204.887l-.025,1.444a44.437,44.437,0,0,1-44.41,43.677q-.436,0-.873-.008A44.777,44.777,0,0,1,116,216.593a44.438,44.438,0,0,1,44.435-45.083,44.634,44.634,0,0,1,42.7,32.1l.188.652h10.123a116.144,116.144,0,0,0,72.7-33.952A114.837,114.837,0,0,0,319.867,88.8V16A15.062,15.062,0,0,0,304.779,1Z" fill="#231f20" stroke="#231f20" stroke-miterlimit="10" stroke-width="2"/>
</svg>
