<svg xmlns="http://www.w3.org/2000/svg" width="113.195mm" height="107.055mm" viewBox="0 0 320.867 303.462">
  <title>3 - Outline</title>
  <path d="M304.78,5a11.068,11.068,0,0,1,11.087,11.024V287.439a11.067,11.067,0,0,1-11.087,11.023H16.088A11.068,11.068,0,0,1,5,287.439a61.464,61.464,0,0,1,19.479-45.394c12.412-11.615,29.185-18.011,47.231-18.011h41.031a48.434,48.434,0,1,0,.479-19.369H5V98.964H113.372a48.439,48.439,0,1,0-.721-19.491H60.085A66.669,66.669,0,0,1,20.723,58,63.435,63.435,0,0,1,5,16.024,11.068,11.068,0,0,1,16.088,5H304.78m0-4H16.088A15.074,15.074,0,0,0,1,16.024C1,50.429,26,78.13,59.766,83.473h56.406l.04-.405a44.425,44.425,0,1,1,.639,13.1l-.241-1.207H1v113.7H116.523l.071-.429a44.437,44.437,0,1,1-.221,13.1l-.171-1.305H71.71c-19.064,0-36.809,6.779-49.964,19.091A65.422,65.422,0,0,0,1,287.439a15.073,15.073,0,0,0,15.088,15.023H304.78a15.071,15.071,0,0,0,15.087-15.023V16.024A15.072,15.072,0,0,0,304.78,1Z" fill="#231f20" stroke="#231f20" stroke-miterlimit="10" stroke-width="2"/>
</svg>
