<svg xmlns="http://www.w3.org/2000/svg" width="113.503mm" height="106.88mm" viewBox="0 0 321.74 302.966">
  <title>4 - Outline</title>
  <path d="M305.6,5A11.017,11.017,0,0,1,316.74,15.862v282.1H160.434c-42.468,0-82.027-15.841-111.39-44.606C21.053,225.939,5,188.813,5,151.5V15.862A11.017,11.017,0,0,1,16.142,5H151.37v98.994a48.439,48.439,0,1,0,19,0V5H305.6m0-4H166.37V107.384l1.1.164a44.439,44.439,0,1,1-13.2,0l1.1-.164V1H16.142A15.02,15.02,0,0,0,1,15.862V151.5c0,38.381,16.491,76.55,45.245,104.718,30.115,29.5,70.668,45.749,114.189,45.749H320.74V15.862A15.02,15.02,0,0,0,305.6,1Z" fill="#231f20" stroke="#231f20" stroke-miterlimit="10" stroke-width="2"/>
</svg>
