<svg xmlns="http://www.w3.org/2000/svg" width="113.503mm" height="106.855mm" viewBox="0 0 321.741 302.896">
  <title>5 - Outline</title>
  <path d="M305.6,5a11.017,11.017,0,0,1,11.142,10.862V55.814l-.511-.1V78.043H208.344a48.42,48.42,0,1,0-.01,19.093h107.9v50.408c0,82.905-67.886,150.352-151.33,150.352H5.538c.548-24.528,9.237-42.385,26.515-54.536,17.717-12.458,45.1-18.9,81.411-19.146a48.416,48.416,0,1,0-.13-19.072H5.5l-.253-73.1L5.075,83.78,5.021,68.092l-.015-4.375a14.069,14.069,0,0,0-.071-1.529H5V15.862A11.017,11.017,0,0,1,16.142,5H71.035l-.05.07H257.031L257.019,5H305.6m0-4H252.3c0,.023,0,.046.009.07H78.727L78.776,1H16.142A15.02,15.02,0,0,0,1,15.862V62.188H1s.475,137.321.508,146.955H116.755l.1-.75a44.412,44.412,0,1,1,.172,13.076l-.2-1.261h-1.278C38.812,220.235,1.51,246.466,1.51,300.4v1.5H164.9c85.649,0,155.33-69.242,155.33-154.352V93.136H204.941l-.1.711a44.4,44.4,0,1,1-.074-13.075l.2,1.271H320.23V60.613c.169.034.342.062.511.1V15.862A15.02,15.02,0,0,0,305.6,1Z" fill="#231f20" stroke="#231f20" stroke-miterlimit="10" stroke-width="2"/>
</svg>
