<svg xmlns="http://www.w3.org/2000/svg" width="113.206mm" height="106.891mm" viewBox="0 0 320.898 302.997">
  <title>6 - Outline</title>
  <path d="M300.747,5,200.078,101.876l-11.155,10.449a48.395,48.395,0,1,0,13.635,15.25c13.852-13.23,28.376-21.815,43.194-25.529a65.688,65.688,0,0,1,15.939-2.015,56.75,56.75,0,0,1,22.076,4.356c19.506,8.181,32.118,26.674,32.13,47.121v.338c-.133,56.179-28.871,90.755-52.956,109.868C234.314,284.434,195.994,298,160.435,298c-58.483,0-95-25.835-115.333-47.508C19.617,223.327,5,187.246,5,151.5,5,114.241,20.486,77.3,47.488,50.155,76.453,21.036,116.564,5,160.435,5H300.747m4.136-4H160.435C115.492,1,74.373,17.455,44.652,47.334,16.911,75.225,1,113.191,1,151.5c0,36.752,15.011,73.831,41.185,101.727C63.06,275.475,100.52,302,160.435,302c36.432,0,75.682-13.888,104.994-37.149,24.773-19.66,54.332-55.215,54.469-112.993V151.5c-.013-22.054-13.588-41.994-34.583-50.8a60.848,60.848,0,0,0-23.623-4.667,69.533,69.533,0,0,0-16.911,2.136c-16.021,4.014-31.644,13.407-46.434,27.918l-.861.845.64,1.022a44.467,44.467,0,1,1-9.793-11.042l.831.671,13.67-12.8L310.058,1.591,307,1.163A15.1,15.1,0,0,0,304.883,1Z" fill="#231f20" stroke="#231f20" stroke-miterlimit="10" stroke-width="2"/>
</svg>
