<svg xmlns="http://www.w3.org/2000/svg" width="113.117mm" height="106.368mm" viewBox="0 0 320.646 301.516">
  <title>7 - Outline</title>
  <g>
    <path d="M304.018,5,212.391,90.2l-5.234,4.821-2.132,1.963.021.046-7.988,7.427-.061-.077-3.139,2.891-6.14,5.655a48.15,48.15,0,0,0-27.423-8.757,46.77,46.77,0,0,0-45.939,36.7l-95.533-1.351A13.986,13.986,0,0,1,5,125.676V13.037A8.11,8.11,0,0,1,13.164,5H304.018m10.176-4H13.164A12.1,12.1,0,0,0,1,13.037V125.676A18,18,0,0,0,18.766,143.51l98.91,1.4.213-1.256A42.756,42.756,0,0,1,160.3,108.164h.023a44.109,44.109,0,0,1,27.082,9.5l.582.455,8.584-7.907.074.093,13.239-12.31-.014-.033,5.234-4.821L314.194,1Z" fill="#231f20" stroke="#231f20" stroke-miterlimit="10" stroke-width="2"/>
    <path d="M315.646,20.29v130.4c0,38.894-16.15,75.474-45.476,103-29.4,27.594-68.5,42.79-110.1,42.79-2.329,0-4.76-.054-7.228-.16l-.179-.008-.178.009c-2.728.126-5.457.19-8.112.19H81.944c-.387,0-.772-.012-1.154-.028l-.085,0H18.636L36,280.148l97.787-90.923a46.859,46.859,0,0,0,26.562,8.126c1.581,0,3.185-.079,4.766-.235,22.121-2.176,40.21-20.372,42.077-42.327a45.847,45.847,0,0,0-6.427-27.84l96.712-89.923L315.646,20.29m4-9.242-2.8,2.7-22.082,20.34-99.191,92.228.361.525a41.927,41.927,0,0,1,7.27,27.612c-1.707,20.065-18.251,36.7-38.483,38.686q-2.2.216-4.375.216a43.158,43.158,0,0,1-26.679-9.161l-.186-.146L33.276,277.219,8.548,300.485H80.62c.439.018.88.031,1.324.031h62.43q4.172,0,8.3-.195,3.68.159,7.4.164c88.131,0,159.575-67.065,159.575-149.792V11.048Z" fill="#231f20" stroke="#231f20" stroke-miterlimit="10" stroke-width="2"/>
  </g>
</svg>
