<svg xmlns="http://www.w3.org/2000/svg" width="113.205mm" height="106.891mm" viewBox="0 0 320.897 302.997">
  <title>9 - Outline</title>
  <path d="M160.464,5c58.483,0,95,25.835,115.333,47.507,25.484,27.163,40.1,63.244,40.1,98.992,0,37.258-15.486,74.2-42.488,101.343C244.445,281.96,204.333,298,160.464,298H20.15L131.805,190.548a48.395,48.395,0,1,0-13.56-15.294l-4.6,4.443c-12.428,10.816-25.379,17.966-38.5,21.254a65.741,65.741,0,0,1-15.939,2.014A56.749,56.749,0,0,1,37.13,198.61C17.625,190.428,5.013,171.936,5,151.5v-.385C5.133,94.967,33.871,60.4,57.955,41.282,86.583,18.563,124.9,5,160.464,5m0-4C124.03,1,84.78,14.887,55.469,38.149,30.7,57.809,1.137,93.364,1,151.1v.4c.014,22.053,13.589,41.993,34.583,50.8a60.847,60.847,0,0,0,23.623,4.666,69.584,69.584,0,0,0,16.911-2.134c13.8-3.458,27.3-10.915,40.228-22.185l6.973-6.729-.546-.872a44.473,44.473,0,1,1,9.793,11.041l-1.029-.831L10.84,301.4l3.054.428a14.954,14.954,0,0,0,2.121.164H160.464c44.942,0,86.06-16.455,115.781-46.334C303.986,227.772,319.9,189.806,319.9,151.5c0-36.753-15.01-73.832-41.183-101.728C257.839,27.521,220.379,1,160.464,1Z" fill="#231f20" stroke="#231f20" stroke-miterlimit="10" stroke-width="2"/>
</svg>
