<svg xmlns="http://www.w3.org/2000/svg" width="112.245mm" height="105.915mm" viewBox="0 0 318.175 300.232">
  <title>A - Outline</title>
  <g>
    <path d="M300.568,5c5.189,0,9.822,2.834,11.68,7.1.518,111.044,1.026,239.824.912,270.319L199.663,175.7a48.023,48.023,0,1,0-81.333-.077L5.038,281.523c.025-30.653.109-154.7.179-260.8L5.223,12C7.057,7.8,11.628,5,16.749,5H300.568m0-4H16.749C9.823,1,3.624,5.008,1.323,10.973l-.1.26v.279c0,2.757-.182,275.7-.192,277.093l-.015,2.153,122.55-114.55A43.606,43.606,0,0,1,115,150.133a44.017,44.017,0,1,1,79.765,25.685l-.115.189c-.052.1-.115.2-.179.3L316.7,291.236l.369-1.849c.441-2.207-.607-231.792-.822-277.793v-.276l-.1-.257C313.821,5.043,307.56,1,300.568,1Z" fill="#231f20" stroke="#231f20" stroke-miterlimit="10" stroke-width="2"/>
    <path d="M131.4,189.418a47.475,47.475,0,0,0,27.615,8.732,48.129,48.129,0,0,0,27.544-8.688l112.493,105.77H20.306a13.9,13.9,0,0,1-1.962-.138L131.4,189.418m55.441-5.182a44.09,44.09,0,0,1-27.826,9.914,43.564,43.564,0,0,1-27.217-9.424l-.241-.19-.3-.08a.9.9,0,0,1-.262-.139L10.907,296.57l1.067.581a17.491,17.491,0,0,0,8.332,2.081H300.971A17.65,17.65,0,0,0,307.2,298.1l.533-.2L186.841,184.236Z" fill="#231f20" stroke="#231f20" stroke-miterlimit="10" stroke-width="2"/>
  </g>
</svg>
