<svg xmlns="http://www.w3.org/2000/svg" width="112.172mm" height="105.925mm" viewBox="0 0 317.967 300.261">
  <title>B - Outline</title>
  <path d="M302,5a10.933,10.933,0,0,1,10.963,10.879v268.5A10.933,10.933,0,0,1,302,295.261H15.963A10.933,10.933,0,0,1,5,284.382V221.607H111.755a48.017,48.017,0,1,0,.321-19H5V98.09H112.166a48.026,48.026,0,1,0-.482-19H5V15.879A10.933,10.933,0,0,1,15.963,5H302m0-4H15.963A14.938,14.938,0,0,0,1,15.879V83.09H115.165l.121-1.007a44,44,0,1,1,.346,12.959l-.167-.952H1V206.607H115.4l.186-1.1a44.017,44.017,0,1,1-.273,12.959l-.108-.858H1v66.775a14.937,14.937,0,0,0,14.963,14.879H302a14.937,14.937,0,0,0,14.963-14.879V15.879A14.938,14.938,0,0,0,302,1Z" fill="#231f20" stroke="#231f20" stroke-miterlimit="10" stroke-width="2"/>
</svg>
