<svg xmlns="http://www.w3.org/2000/svg" width="112.244mm" height="105.903mm" viewBox="0 0 318.172 300.197">
  <title>C - Outline</title>
  <path d="M159.086,5c.643,0,1.285.011,1.926.021l.559.009H302.2A10.936,10.936,0,0,1,313.172,15.9V140.6H206.18a48,48,0,1,0,.013,19h106.64c-2.468,35.981-18.894,69.479-46.543,94.712-28.845,26.323-66.856,40.844-107.026,40.886H15.973A10.913,10.913,0,0,1,5.3,286.823L5,285.579V15.9A10.936,10.936,0,0,1,15.973,5.03H156.6l.559-.009c.641-.01,1.282-.021,1.926-.021m0-4c-.851,0-1.7.018-2.545.03H15.973A14.941,14.941,0,0,0,1,15.9V287.751h.406A14.976,14.976,0,0,0,15.973,299.2h142.8l.131,0h.357c85.276-.09,154.719-63.862,157.788-143.6H202.8l-.146.993a44.008,44.008,0,1,1,0-12.955l.141.962H317.172V15.9A14.941,14.941,0,0,0,302.2,1.03H161.631c-.848-.012-1.694-.03-2.545-.03Z" fill="#231f20" stroke="#231f20" stroke-miterlimit="10" stroke-width="2"/>
</svg>
