<svg xmlns="http://www.w3.org/2000/svg" width="112.197mm" height="106.072mm" viewBox="0 0 318.04 300.678">
  <title>D - Outline</title>
  <path d="M302.077,5A10.943,10.943,0,0,1,313.04,15.9V284.78a10.943,10.943,0,0,1-10.963,10.9H166.359l.016-.209H14.6A9.567,9.567,0,0,1,5,285.956V161.121H110.25a49.975,49.975,0,1,0,0-21.532H5V14.753A9.567,9.567,0,0,1,14.6,5.24H186.125l4.225-.035L190.339,5H302.077m0-4H186.115c0,.08.006.16.01.24H14.6A13.557,13.557,0,0,0,1,14.753V143.589H113.579a45.974,45.974,0,1,1,0,13.532H1V285.956a13.557,13.557,0,0,0,13.6,13.513H162.056c-.005.07-.012.139-.016.209H302.077a14.947,14.947,0,0,0,14.963-14.9V15.9A14.947,14.947,0,0,0,302.077,1Z" fill="#231f20" stroke="#231f20" stroke-miterlimit="10" stroke-width="2"/>
</svg>
