<svg xmlns="http://www.w3.org/2000/svg" width="111.647mm" height="106.083mm" viewBox="0 0 316.48 300.708">
  <title>F - Outline</title>
  <path d="M300.582,5a10.911,10.911,0,0,1,10.9,10.9V76.526H204.389a46.45,46.45,0,1,0,.507,19.293H311.48v68.187a11.084,11.084,0,0,1-11.071,11.072H170.836a15.917,15.917,0,0,0-15.9,15.9v93.746a11,11,0,0,1-10.985,10.984H15.9A10.911,10.911,0,0,1,5,284.81V15.9A10.911,10.911,0,0,1,15.9,5H300.582m0-4H15.9A14.916,14.916,0,0,0,1,15.9V284.81a14.915,14.915,0,0,0,14.9,14.9H143.953a15,15,0,0,0,14.985-14.984V190.978a11.912,11.912,0,0,1,11.9-11.9H300.409a15.089,15.089,0,0,0,15.071-15.072V91.819H201.453l-.176,1.3a42.464,42.464,0,1,1-.228-12.963l.063.371H315.48V15.9A14.915,14.915,0,0,0,300.582,1Z" fill="#231f20" stroke="#231f20" stroke-miterlimit="10" stroke-width="2"/>
</svg>
