<svg xmlns="http://www.w3.org/2000/svg" width="112.124mm" height="106.027mm" viewBox="0 0 317.832 300.55">
  <title>G - Outline</title>
  <path d="M159.329,5c41.04,0,79.615,15.14,108.617,42.625,28.945,27.432,44.886,63.887,44.886,102.608v53.573H205.741a47.995,47.995,0,1,0,.414,19.127H312.831v61.725a10.936,10.936,0,0,1-10.956,10.891H15.957A10.936,10.936,0,0,1,5,284.659V15.893A10.937,10.937,0,0,1,15.957,5H159.329m-.007-4H15.957A14.942,14.942,0,0,0,1,15.893V284.659A14.941,14.941,0,0,0,15.957,299.55H301.875a14.941,14.941,0,0,0,14.956-14.891V218.934H202.69l-.118.971a44,44,0,1,1-.353-13.332l.224,1.234H316.831V150.348c0-.025,0-.049,0-.074C316.832,67.834,246.31,1,159.322,1Z" fill="#231f20" stroke="#231f20" stroke-miterlimit="10" stroke-width="2"/>
</svg>
