<svg xmlns="http://www.w3.org/2000/svg" width="112.172mm" height="106.083mm" viewBox="0 0 317.967 300.709">
  <title>H - Outline</title>
  <path d="M302,5a10.943,10.943,0,0,1,10.963,10.9V284.81A10.944,10.944,0,0,1,302,295.709H168.483V261.058a48.018,48.018,0,1,0-19,0v34.652H15.963A10.944,10.944,0,0,1,5,284.81V15.9A10.943,10.943,0,0,1,15.963,5h133.52V39.063a48.015,48.015,0,1,0,19,0V5H302m0-4H164.483V42.449l1.02.152a44.017,44.017,0,1,1-13.039,0l1.019-.152V1H15.963A14.948,14.948,0,0,0,1,15.9V284.81a14.948,14.948,0,0,0,14.963,14.9h137.52V257.67l-1.019-.151a44.018,44.018,0,1,1,13.039,0l-1.02.151v42.039H302a14.948,14.948,0,0,0,14.963-14.9V15.9A14.948,14.948,0,0,0,302,1Z" fill="#231f20" stroke="#231f20" stroke-miterlimit="10" stroke-width="2"/>
</svg>
