<svg xmlns="http://www.w3.org/2000/svg" width="57.055mm" height="105.925mm" viewBox="0 0 161.731 300.261">
  <title>I - Outline</title>
  <path d="M146.955,5a9.787,9.787,0,0,1,9.776,9.776v270.71a9.787,9.787,0,0,1-9.776,9.775H14.776A9.786,9.786,0,0,1,5,285.486V14.776A9.786,9.786,0,0,1,14.776,5H71.365V43.468a46.179,46.179,0,1,0,19,0V5h56.59m0-4H86.365V46.832l.971.149a42.179,42.179,0,1,1-12.94,0l.969-.149V1H14.776A13.792,13.792,0,0,0,1,14.776v270.71a13.791,13.791,0,0,0,13.776,13.775H146.955a13.791,13.791,0,0,0,13.776-13.775V14.776A13.792,13.792,0,0,0,146.955,1Z" fill="#231f20" stroke="#231f20" stroke-miterlimit="10" stroke-width="2"/>
</svg>
