<svg xmlns="http://www.w3.org/2000/svg" width="112.163mm" height="106.079mm" viewBox="0 0 317.942 300.697">
  <title>J - Outline</title>
  <path d="M170.1,5l141.153.492a1.679,1.679,0,0,1,1.688,1.666v143.4c0,2.594-.077,5.266-.228,7.919l-.087,1.4c-2.469,36.859-19.575,71.107-48.167,96.436-28.671,25.4-66.133,39.385-105.486,39.385s-76.8-13.98-105.469-39.365C24.915,231.018,7.8,196.784,5.32,159.938l-.251-3.731H5l0-16.393a1.684,1.684,0,0,1,1.706-1.665l141.3-.491a1.712,1.712,0,0,1,1.463.826v27.841l-.192.091a48.02,48.02,0,1,0,19.192-.038V119.515h-.054V6.666A1.68,1.68,0,0,1,170.1,5m.008-4a5.685,5.685,0,0,0-5.692,5.666V123.515h.054v45.738l.035.51,1.389.217a44.019,44.019,0,1,1-50.94,43.473,44.309,44.309,0,0,1,35.6-43.212l2.919-1.393V137.722a5.7,5.7,0,0,0-5.463-4.064l-141.314.491A5.685,5.685,0,0,0,1,139.814l0,20.393h.329C6.608,238.541,75.566,299.7,158.974,299.7c83.426,0,152.4-61.192,157.644-139.553l.088-1.415c.156-2.747.236-5.478.236-8.169V7.158a5.685,5.685,0,0,0-5.688-5.666L170.109,1Z" fill="#231f20" stroke="#231f20" stroke-miterlimit="10" stroke-width="2"/>
</svg>
