<svg xmlns="http://www.w3.org/2000/svg" width="110.117mm" height="105.915mm" viewBox="0 0 312.144 300.232">
  <title>K - Outline</title>
  <g>
    <path d="M299.592,5,185.129,111.031a48.445,48.445,0,0,0-16.421-6.386V5H299.592M305.4,1h-140.7V108.06l1.263.182a44.323,44.323,0,0,1,19.56,7.868L309.666,1.121,306,1.02l-.186-.008C305.68,1.006,305.542,1,305.4,1Z" fill="#231f20" stroke="#231f20" stroke-miterlimit="10" stroke-width="2"/>
    <path d="M149.708,5v99.754c-21.955,4.5-37.649,23.217-37.649,45.361s15.694,40.863,37.649,45.362v99.753H16.227A11.068,11.068,0,0,1,5,284.355V15.879A11.068,11.068,0,0,1,16.227,5H149.708m4-4H16.227A15.072,15.072,0,0,0,1,15.879V284.355a15.072,15.072,0,0,0,15.227,14.877H153.708V192.11l-1.037-.161c-21.215-3.3-36.612-20.891-36.612-41.832s15.4-38.534,36.612-41.831l1.037-.161V1Z" fill="#231f20" stroke="#231f20" stroke-miterlimit="10" stroke-width="2"/>
    <path d="M186.608,188.248,299.674,295.232H168.708v-99.6a48.174,48.174,0,0,0,17.9-7.383m.346-5.18-1.011.75a44.112,44.112,0,0,1-19.971,8.216l-1.264.181V297.686a1.781,1.781,0,0,0,1.762,1.546H300.382a15.467,15.467,0,0,0,5.219-.9l2.3-.824L186.954,183.068Z" fill="#231f20" stroke="#231f20" stroke-miterlimit="10" stroke-width="2"/>
  </g>
</svg>
