<svg xmlns="http://www.w3.org/2000/svg" width="112.172mm" height="106.202mm" viewBox="0 0 317.967 301.046">
  <title>L - Outline</title>
  <path d="M52.219,5c54.214,0,98.321,43.723,98.321,97.466v64.039a48.026,48.026,0,0,0-7.151,92.435,45.146,45.146,0,0,0,36.617-1.836,48.214,48.214,0,0,0,26.218-32.428H305.6A7.354,7.354,0,0,1,312.967,232v53.128a10.813,10.813,0,0,1-10.685,10.914H15.685A10.813,10.813,0,0,1,5,285.132V15.915A10.814,10.814,0,0,1,15.685,5H52.219m0-4H15.685A14.818,14.818,0,0,0,1,15.915V285.132a14.818,14.818,0,0,0,14.685,14.914h286.6a14.818,14.818,0,0,0,14.685-14.914V232A11.358,11.358,0,0,0,305.6,220.676H202.955l-.23,1.222a44.16,44.16,0,0,1-24.479,31.614,41.148,41.148,0,0,1-33.469,1.676,44.025,44.025,0,0,1,8.473-85.077l1.29-.182V102.466C154.54,46.518,108.639,1,52.219,1Z" fill="#231f20" stroke="#231f20" stroke-miterlimit="10" stroke-width="2"/>
</svg>
