<svg xmlns="http://www.w3.org/2000/svg" width="112.172mm" height="106.083mm" viewBox="0 0 317.967 300.709">
  <title>M - Outline</title>
  <path d="M301.135,5c6.524,0,11.832,4.91,11.832,10.944v268.82c0,6.035-5.308,10.945-11.832,10.945H237.214V198.078a36.192,36.192,0,0,0,15.584-6.853,48.015,48.015,0,1,0-49.457,1.274,39.477,39.477,0,0,0,14.522,5.586v97.624H101.09V197.742a48.023,48.023,0,1,0-36.479-7.419,37.762,37.762,0,0,0,15.44,6.927c.462.115.928.222,1.393.323v98.136H16.833C10.308,295.709,5,290.8,5,284.764V15.944C5,9.91,10.308,5,16.833,5h284.3m0-4H16.833C8.1,1,1,7.7,1,15.944v268.82c0,8.241,7.1,14.945,15.833,14.945H85.444V194.239l-.963-.158c-1.169-.192-2.34-.433-3.523-.727a33.812,33.812,0,0,1-13.94-6.227l-.086-.063a44.013,44.013,0,1,1,31.432,7.1l-1.274.194V299.709H221.863V194.664l-1.287-.185a36.688,36.688,0,0,1-15.107-5.368l-.087-.053a44.018,44.018,0,1,1,45.169-1.144l-.123.086a32.975,32.975,0,0,1-15.927,6.479l-1.287.185V299.709h67.921c8.73,0,15.832-6.7,15.832-14.945V15.944C316.967,7.7,309.865,1,301.135,1Z" fill="#231f20" stroke="#231f20" stroke-miterlimit="10" stroke-width="2"/>
</svg>
