<svg xmlns="http://www.w3.org/2000/svg" width="112.172mm" height="105.914mm" viewBox="0 0 317.967 300.23">
  <title>N - Outline</title>
  <path d="M302.029,5a10.905,10.905,0,0,1,10.938,10.847V284.383a10.905,10.905,0,0,1-10.938,10.847H96.426V264.524a48.023,48.023,0,1,0-19.148.084V295.23H15.938A10.905,10.905,0,0,1,5,284.383V15.847A10.905,10.905,0,0,1,15.938,5H222.065V36.388a48.009,48.009,0,1,0,19.118-.043V5h60.846m0-4H237.183V39.728l1.272.2a44.031,44.031,0,1,1-13.016-.063l.626-.089V1H15.938A14.909,14.909,0,0,0,1,15.847V284.383A14.909,14.909,0,0,0,15.938,299.23h65.34V261.2l-.606-.083a44.011,44.011,0,1,1,13.016-.16l-1.262.2V299.23h209.6a14.909,14.909,0,0,0,14.938-14.847V15.847A14.909,14.909,0,0,0,302.029,1Z" fill="#231f20" stroke="#231f20" stroke-miterlimit="10" stroke-width="2"/>
</svg>
