<svg xmlns="http://www.w3.org/2000/svg" width="112.278mm" height="105.925mm" viewBox="0 0 318.267 300.261">
  <title>O - Outline</title>
  <g>
    <path d="M302.292,5a10.94,10.94,0,0,1,10.975,10.881v124.75H206.206a48.023,48.023,0,0,0-94.145,0H5V15.881A10.94,10.94,0,0,1,15.975,5H302.292m0-4H15.975A14.946,14.946,0,0,0,1,15.881v128.75H115.454l.1-.7a44.02,44.02,0,0,1,87.161,0l.1.7H317.267V15.881A14.946,14.946,0,0,0,302.292,1Z" fill="#231f20" stroke="#231f20" stroke-miterlimit="10" stroke-width="2"/>
    <path d="M313.267,159.631V284.385a10.938,10.938,0,0,1-10.975,10.876H15.975A10.938,10.938,0,0,1,5,284.385V159.631H112.06a48.024,48.024,0,0,0,94.147,0h107.06m4-4H202.814l-.1.7a44.02,44.02,0,0,1-87.161,0l-.1-.7H1V284.385a14.943,14.943,0,0,0,14.975,14.876H302.292a14.943,14.943,0,0,0,14.975-14.876V155.631Z" fill="#231f20" stroke="#231f20" stroke-miterlimit="10" stroke-width="2"/>
  </g>
</svg>
