<svg xmlns="http://www.w3.org/2000/svg" width="112.227mm" height="106.072mm" viewBox="0 0 318.125 300.678">
  <title>P - Outline</title>
  <path d="M302.227,5a10.91,10.91,0,0,1,10.9,10.9V99.362a90.522,90.522,0,0,1-90.419,90.42H165.977a10.264,10.264,0,0,0-10.253,10.253v86.016a9.637,9.637,0,0,1-9.626,9.627H15.9A10.91,10.91,0,0,1,5,284.78V96.625H114.166A46.764,46.764,0,0,0,159.7,133.864a46.449,46.449,0,0,0,2.784-92.814c-.928-.054-1.867-.082-2.792-.082a46.14,46.14,0,0,0-45.349,36.387H5V15.9A10.91,10.91,0,0,1,15.9,5h286.33m0-4H15.9A14.914,14.914,0,0,0,1,15.9V81.355H117.68l.064-.419a42.255,42.255,0,0,1,41.947-35.968c.849,0,1.7.025,2.559.075A42.449,42.449,0,1,1,117.744,93.9l-.2-1.272H1V284.78a14.914,14.914,0,0,0,14.9,14.9H146.1a13.642,13.642,0,0,0,13.626-13.627V200.035a6.26,6.26,0,0,1,6.253-6.253h56.729a94.527,94.527,0,0,0,94.419-94.42V15.9A14.914,14.914,0,0,0,302.227,1Z" fill="#231f20" stroke="#231f20" stroke-miterlimit="10" stroke-width="2"/>
</svg>
