<svg xmlns="http://www.w3.org/2000/svg" width="112.172mm" height="106.083mm" viewBox="0 0 317.967 300.709">
  <title>Q - Outline</title>
  <path d="M301.931,5a10.981,10.981,0,0,1,11.036,10.9V282.667l-85.091-81.033-27.487-26.957a47.949,47.949,0,0,0,6.545-21.8l.024-.561c.014-.361.025-.731.031-1.092l0-.136v-.066c0-.214.007-.429.007-.641,0-.486-.008-.952-.023-1.453l-.026-.692c-.024-.557-.056-1.111-.1-1.662l-2.3.18-.016-.149,2.3-.188a48.015,48.015,0,1,0-19.172,42.452l1.864,1.775,107.13,105.07H16.036A10.981,10.981,0,0,1,5,284.81V150.578C5,114.84,19.959,78.742,46.042,51.54,74.818,21.528,114.928,5,158.983,5H301.931m0-4H158.983C113.828,1,72.692,17.965,43.154,48.771,16.365,76.711,1,113.819,1,150.578V284.81a14.985,14.985,0,0,0,15.036,14.9h285.9a15.147,15.147,0,0,0,3.967-.542l-113.587-111.4-4.41-4.2-1.025.841a44.017,44.017,0,1,1,15.976-37.668l1.5-.088-1.487.231c.04.5.069,1.014.091,1.525l.025.669c.013.425.02.851.02,1.3,0,.216,0,.432-.007.647l0,.12c-.006.341-.016.682-.029,1.013l-.024.549a43.885,43.885,0,0,1-7.305,22.037l-.353.53L225.1,204.513l90.764,86.433.633-2.483a14.854,14.854,0,0,0,.472-3.653V15.9A14.985,14.985,0,0,0,301.931,1Z" fill="#231f20" stroke="#231f20" stroke-miterlimit="10" stroke-width="2"/>
</svg>
