<svg xmlns="http://www.w3.org/2000/svg" width="112.158mm" height="106.599mm" viewBox="0 0 317.928 302.17">
  <title>R - Outline</title>
  <g>
    <path d="M301.957,5a10.983,10.983,0,0,1,10.971,10.971V83.858l-.294-.127.229,6.336c.044,1.236.065,2.26.065,3.218L312.9,116.1c-.038,26.56-16.559,53.443-42.089,68.486-11.15,6.571-22.867,10.044-33.884,10.044a47.866,47.866,0,0,1-22.457-5.407l-39.63-38.2a46.927,46.927,0,0,0-15.874-91.085A47.229,47.229,0,0,0,113.043,97.2H5V15.971A10.983,10.983,0,0,1,15.971,5H301.957m0-4H15.971A14.988,14.988,0,0,0,1,15.971V101.2H116.408l.125-.824a42.921,42.921,0,1,1,52.407,48.23l-1.9.453L212.1,192.49a51.96,51.96,0,0,0,24.829,6.137c11.65,0,23.967-3.556,35.915-10.6,26.724-15.748,44.018-43.982,44.058-71.927l.03-22.813c0-1.128-.028-2.249-.068-3.367l.068.029V15.971A14.988,14.988,0,0,0,301.957,1Z" fill="#231f20" stroke="#231f20" stroke-miterlimit="10" stroke-width="2"/>
    <path d="M112.978,116.2a47.014,47.014,0,0,0,35.85,36.474l.2.19,7.182,6.815,6.753,6.407v-.118L299,297.081H15.971A10.981,10.981,0,0,1,5,286.115V116.2H112.978m3.381-4H1V286.115a14.985,14.985,0,0,0,14.971,14.966H301.957c.234,0,.725.012,1.348.027,1.118.026,2.643.062,3.9.062h.162l1.638,0L158.964,156.557v.22l-7.182-6.815c-.114-.154-.233-.311-.352-.465l-.345-.443-.551-.109A42.98,42.98,0,0,1,116.543,113.4l-.184-1.2Z" fill="#231f20" stroke="#231f20" stroke-miterlimit="10" stroke-width="2"/>
  </g>
</svg>
