<svg xmlns="http://www.w3.org/2000/svg" width="111.664mm" height="106.099mm" viewBox="0 0 316.527 300.753">
  <title>S - Outline</title>
  <path d="M300.626,5a10.913,10.913,0,0,1,10.9,10.9V78.118H138.247a46.153,46.153,0,0,0-45.5-37.076c-.925,0-1.865.027-2.792.081a46.46,46.46,0,1,0,48.243,56h74.024A108.842,108.842,0,0,1,311.527,205.4v79.45a10.913,10.913,0,0,1-10.9,10.9H15.9A10.913,10.913,0,0,1,5,284.852V221.429H179.26a46.774,46.774,0,0,0,45.544,37.25,46.46,46.46,0,0,0,2.783-92.837c-.93-.054-1.872-.082-2.8-.082a46.147,46.147,0,0,0-45.365,36.461H73.275A79.571,79.571,0,0,1,5,123.7V15.9A10.913,10.913,0,0,1,15.9,5H300.626m0-4H15.9A14.918,14.918,0,0,0,1,15.9V123.7a83.425,83.425,0,0,0,72,82.526H182.763l.074-.484a42.264,42.264,0,0,1,41.95-35.977c.852,0,1.706.025,2.567.075A42.46,42.46,0,1,1,182.837,218.7l-.194-1.273H1v67.423a14.918,14.918,0,0,0,14.9,14.9H300.626a14.918,14.918,0,0,0,14.9-14.9V205.4A112.842,112.842,0,0,0,212.389,93.118H134.834l-.132.864a42.719,42.719,0,0,1-41.968,35.977,42.46,42.46,0,0,1-2.549-84.843c.856-.05,1.712-.074,2.559-.074A42.282,42.282,0,0,1,134.7,81.017l.168,1.1H315.527V15.9A14.918,14.918,0,0,0,300.626,1Z" fill="#231f20" stroke="#231f20" stroke-miterlimit="10" stroke-width="2"/>
</svg>
