<svg xmlns="http://www.w3.org/2000/svg" width="112.172mm" height="105.914mm" viewBox="0 0 317.968 300.23">
  <title>U - Outline</title>
  <path d="M302.005,5a10.86,10.86,0,0,1,10.963,10.728V284.5a10.859,10.859,0,0,1-10.963,10.727H15.963A10.859,10.859,0,0,1,5,284.5V15.728A10.86,10.86,0,0,1,15.963,5H149.484v98.244a47.833,47.833,0,1,0,19,0V5H302.005m0-4H164.484V106.628l1.019.153a43.833,43.833,0,1,1-13.038,0l1.019-.152V1H15.963A14.864,14.864,0,0,0,1,15.728V284.5A14.863,14.863,0,0,0,15.963,299.23H302.005A14.863,14.863,0,0,0,316.968,284.5V15.728A14.864,14.864,0,0,0,302.005,1Z" fill="#231f20" stroke="#231f20" stroke-miterlimit="10" stroke-width="2"/>
</svg>
