<svg xmlns="http://www.w3.org/2000/svg" width="112.172mm" height="105.952mm" viewBox="0 0 317.968 300.336">
  <title>V - Outline</title>
  <path d="M302.005,5a10.871,10.871,0,0,1,10.963,10.75V140.92c0,2.351-.063,4.816-.188,7.326l-.208,4.2h.373c-.637,35.319-14.771,69.05-39.964,95.232l-1.118,1.161v34.1A12.457,12.457,0,0,1,259.3,295.261H163.7l-.057,0c-1.724.049-3.248.073-4.66.073s-2.943-.024-4.7-.074H58.665A12.458,12.458,0,0,1,46.1,282.938v-34.1l-1.117-1.162C19.794,221.493,5.66,187.763,5.023,152.444H5.4l-.207-4.2C5.061,145.7,5,143.3,5,140.92V15.75A10.871,10.871,0,0,1,15.963,5H149.484v98.707a46.3,46.3,0,0,0-35.591,33.184,47.18,47.18,0,0,0-1.856,11.4l-.161,4.155h.515a46.834,46.834,0,0,0,93.574-2.476v-.053a46.916,46.916,0,0,0-1.88-12.992,46.333,46.333,0,0,0-35.6-33.217V5H302.005m0-4H164.484V107.086l1.017.153A42.357,42.357,0,0,1,200.233,138,42.765,42.765,0,1,1,116.3,149.93l-.015-1.486h-.253a43.105,43.105,0,0,1,1.71-10.472,42.345,42.345,0,0,1,34.724-30.733l1.016-.153V1H15.963A14.874,14.874,0,0,0,1,15.75V140.92c0,2.444.063,4.919.192,7.524H1v1.5C1,187.228,15.6,222.9,42.1,250.449v32.489a16.461,16.461,0,0,0,16.561,16.323h95.5c1.788.05,3.364.075,4.816.075s3.028-.025,4.774-.075H259.3a16.46,16.46,0,0,0,16.559-16.323V250.449c26.51-27.551,41.105-63.221,41.105-100.505v-1.5h-.193c.128-2.582.193-5.106.193-7.524V15.75A14.874,14.874,0,0,0,302.005,1Z" fill="#231f20" stroke="#231f20" stroke-miterlimit="10" stroke-width="2"/>
</svg>
