<svg xmlns="http://www.w3.org/2000/svg" width="112.172mm" height="106.047mm" viewBox="0 0 317.967 300.605">
  <title>W - Outline</title>
  <path d="M154.249,2.718l.068,2.359C156.176,5.023,157.63,5,159.03,5s2.855.023,4.715.077h.062l.148,0h48.761v99.729a46.9,46.9,0,1,0,19.535-.027l0-89.1.013-2.17.054-8.435h68.736c6.568,0,11.911,4.775,11.911,10.646V155.163l-.374,5.177c-2.593,35.954-19.22,69.568-46.817,94.65-28.819,26.191-66.727,40.615-106.744,40.615-40.752,0-79.19-14.942-108.232-42.076C21.843,226.476,5.616,190.474,5.109,152.155l-.057-3.7-.052,0V15.726C5,9.855,10.344,5.08,16.913,5.08h66.62v99.784a46.882,46.882,0,1,0,19.637-.114v-73.2l.208-26.466H154.1V2.728l.152-.01M159.03,1c-1.5,0-3,.026-4.828.079l.043,1.5-.148-1.5H99.409L99.17,31.515v76.6l1.264.2a42.892,42.892,0,1,1-14.008.062l1.107-.187V1.08H16.913C8.139,1.08,1,7.65,1,15.726V150.8l.1,1.405h.007c1.079,81.454,71.506,147.4,157.922,147.4,41.014,0,79.878-14.793,109.434-41.655,28.46-25.866,45.446-60.293,48.117-97.323l.384.5V15.726c0-8.076-7.138-14.646-15.911-14.646H228.345l-.078,12.41-.014,0,0,94.647,1.259.2a42.878,42.878,0,1,1-13.809-.019l1.015-.163V1.08H164.008l-.149,0C162.027,1.026,160.528,1,159.03,1Z" fill="#231f20" stroke="#231f20" stroke-miterlimit="10" stroke-width="2"/>
</svg>
