<svg xmlns="http://www.w3.org/2000/svg" width="112.281mm" height="106.685mm" viewBox="0 0 318.277 302.415">
  <title>X - Outline</title>
  <g>
    <path d="M113.417,160.708a47.1,47.1,0,0,0,35.921,36.158V297.415H16.118A10.912,10.912,0,0,1,5.155,286.58V282.6l-.027-.23A17.23,17.23,0,0,1,5,280.376v-35.96a83.979,83.979,0,0,1,77.257-83.708h31.16m3.369-4H82.1A87.979,87.979,0,0,0,1,244.416v35.96a21.114,21.114,0,0,0,.155,2.453v3.751a14.916,14.916,0,0,0,14.963,14.835h137.22v-107.9l-.717-.11a42.988,42.988,0,0,1-35.679-35.681l-.156-1.016Z" fill="#231f20" stroke="#231f20" stroke-miterlimit="10" stroke-width="2"/>
    <path d="M149.338,5V105.548a47.111,47.111,0,0,0-35.922,36.16H82.294A83.983,83.983,0,0,1,5,58V22.038a17.2,17.2,0,0,1,.128-1.99l.027-.231V15.835A10.912,10.912,0,0,1,16.118,5h133.22m4-4H16.118A14.916,14.916,0,0,0,1.155,15.835v3.75A21.128,21.128,0,0,0,1,22.038V58a87.981,87.981,0,0,0,81.139,87.712h34.647l.156-1.02a42.989,42.989,0,0,1,35.679-35.678l.717-.11V1Z" fill="#231f20" stroke="#231f20" stroke-miterlimit="10" stroke-width="2"/>
    <path d="M236.021,160.708a83.979,83.979,0,0,1,77.256,83.707v35.962a17.258,17.258,0,0,1-.128,1.991l-.027.23v3.982a10.912,10.912,0,0,1-10.963,10.835H168.374v-73.3l-.036-4V205.3h.036v-8.311a47.1,47.1,0,0,0,36.487-36.276h31.16m.157-4H201.492l-.155,1.016a42.991,42.991,0,0,1-35.681,35.681l-1.282.2V201.3h-.036v22.816h.036v77.3H302.159a14.916,14.916,0,0,0,14.963-14.835v-3.75a21.128,21.128,0,0,0,.155-2.453V244.415a87.979,87.979,0,0,0-81.1-87.707Z" fill="#231f20" stroke="#231f20" stroke-miterlimit="10" stroke-width="2"/>
    <path d="M302.159,5a10.912,10.912,0,0,1,10.963,10.835v3.981l.027.23a17.26,17.26,0,0,1,.128,1.992V58a83.981,83.981,0,0,1-77.293,83.711H204.862a47.1,47.1,0,0,0-36.5-36.279l-.028-3.044V79.552h.036V5H302.159m0-4H164.374V75.552h-.036v30.833h.036v2.429l1.282.2a42.992,42.992,0,0,1,35.681,35.678l.155,1.02h34.647A87.98,87.98,0,0,0,317.277,58V22.038a21.159,21.159,0,0,0-.155-2.454V15.835A14.916,14.916,0,0,0,302.159,1Z" fill="#231f20" stroke="#231f20" stroke-miterlimit="10" stroke-width="2"/>
  </g>
</svg>
