<svg xmlns="http://www.w3.org/2000/svg" width="111.737mm" height="106.083mm" viewBox="0 0 316.735 300.709">
  <title>Y - Outline</title>
  <g>
    <path d="M5,17.08l113.7,108.9a46.136,46.136,0,0,0-6.913,24.372,46.776,46.776,0,0,0,36.93,45.474v99.881H75.757a7.517,7.517,0,0,1-7.508-7.509V267.574l-1.694-1.2A148.579,148.579,0,0,1,21.93,216.664,136.364,136.364,0,0,1,5,150.578V17.08M2.51,9.155,1.9,10.823A14.874,14.874,0,0,0,1,15.9V150.578a140.319,140.319,0,0,0,17.42,68,152.514,152.514,0,0,0,45.829,51.064V288.2a11.521,11.521,0,0,0,11.508,11.509h76.961V192.462l-.958-.147a42.714,42.714,0,0,1-35.972-41.961,42.174,42.174,0,0,1,7.67-24.324l.432-.616L2.51,9.155Z" fill="#231f20" stroke="#231f20" stroke-miterlimit="10" stroke-width="2"/>
    <path d="M299.048,5,185.207,112.359a46.421,46.421,0,0,0-53.231-.138l-3.064-2.933-1.469-1.406h0l-3.119-2.985L19.971,5H299.048m1.788-4H16.153a14.851,14.851,0,0,0-2.449.217l-2.957.49L121.558,107.785l-.088.079,4.582,4.388c.032-.024.063-.05.094-.074l5.508,5.272,1.021-.783a42.408,42.408,0,0,1,52,.281l.817.641L307.52,2.509l-1.426-.539A14.843,14.843,0,0,0,300.836,1Z" fill="#231f20" stroke="#231f20" stroke-miterlimit="10" stroke-width="2"/>
    <path d="M311.735,19.4V149.177q0,.363,0,.725v.077l0,.6a136.356,136.356,0,0,1-16.93,66.083,148.571,148.571,0,0,1-44.624,49.714l-1.694,1.195V288.2a7.516,7.516,0,0,1-7.508,7.508H167.718V195.89a46.771,46.771,0,0,0,37.229-45.536,46.2,46.2,0,0,0-6.754-24.125l72.854-68.706L311.735,19.4M315.1,10.77,268.312,54.6l-75.3,71.017.534.779a42.212,42.212,0,0,1,7.405,23.954,42.714,42.714,0,0,1-35.97,41.961l-1.259.193v107.2h77.261A11.521,11.521,0,0,0,252.487,288.2V269.643a152.53,152.53,0,0,0,45.828-51.064,140.307,140.307,0,0,0,17.42-68l0-.63q0-.384,0-.771V15.9a14.849,14.849,0,0,0-.2-2.329l-.438-2.8Z" fill="#231f20" stroke="#231f20" stroke-miterlimit="10" stroke-width="2"/>
  </g>
</svg>
